%TF.GenerationSoftware,KiCad,Pcbnew,5.99.0-unknown-0e3b001c51~134~ubuntu20.04.1*%
%TF.CreationDate,2021-11-30T16:29:56+01:00*%
%TF.ProjectId,accelerometer,61636365-6c65-4726-9f6d-657465722e6b,0.0.1*%
%TF.SameCoordinates,Original*%
%TF.FileFunction,Copper,L2,Bot*%
%TF.FilePolarity,Positive*%
%FSLAX46Y46*%
G04 Gerber Fmt 4.6, Leading zero omitted, Abs format (unit mm)*
G04 Created by KiCad (PCBNEW 5.99.0-unknown-0e3b001c51~134~ubuntu20.04.1) date 2021-11-30 16:29:56*
%MOMM*%
%LPD*%
G01*
G04 APERTURE LIST*
%TA.AperFunction,Profile*%
%ADD10C,0.100000*%
%TD*%
%TA.AperFunction,ComponentPad*%
%ADD11C,3.800000*%
%TD*%
%TA.AperFunction,ViaPad*%
%ADD12C,0.800000*%
%TD*%
G04 APERTURE END LIST*
D10*
X158115000Y-87503000D02*
G75*
G03*
X155575000Y-84963000I-2540000J0D01*
G01*
X133985000Y-103378000D02*
X133985000Y-87503000D01*
X158115000Y-103378000D02*
X158115000Y-87503000D01*
X133985000Y-103378000D02*
G75*
G03*
X134620000Y-104013000I635000J0D01*
G01*
X136525000Y-84963000D02*
G75*
G03*
X133985000Y-87503000I0J-2540000D01*
G01*
X155575000Y-84963000D02*
X136525000Y-84963000D01*
X158115000Y-103378000D02*
G75*
G02*
X157480000Y-104013000I-635000J0D01*
G01*
X134620000Y-104013000D02*
X157480000Y-104013000D01*
D11*
%TO.P,H3,1*%
%TO.N,N/C*%
X155575000Y-87503000D03*
%TD*%
%TO.P,H4,1*%
%TO.N,N/C*%
X136525000Y-87503000D03*
%TD*%
D12*
%TO.N,GND*%
X139573000Y-87757000D03*
X151384000Y-92456000D03*
X146812000Y-93726000D03*
X152273000Y-87503000D03*
%TD*%
%TA.AperFunction,Conductor*%
%TO.N,GND*%
G36*
X155543113Y-85090187D02*
G01*
X155558976Y-85090187D01*
X155575000Y-85094480D01*
X155585812Y-85091583D01*
X155588546Y-85092385D01*
X155588640Y-85090825D01*
X155858248Y-85107134D01*
X155873352Y-85108968D01*
X156144971Y-85158744D01*
X156159744Y-85162385D01*
X156423392Y-85244541D01*
X156437610Y-85249933D01*
X156689434Y-85363270D01*
X156702890Y-85370333D01*
X156939216Y-85513196D01*
X156951737Y-85521838D01*
X156954223Y-85523786D01*
X157169121Y-85692148D01*
X157180509Y-85702238D01*
X157375762Y-85897491D01*
X157385852Y-85908879D01*
X157521355Y-86081835D01*
X157556161Y-86126262D01*
X157564803Y-86138783D01*
X157707667Y-86375110D01*
X157714730Y-86388566D01*
X157727144Y-86416149D01*
X157828065Y-86640386D01*
X157833459Y-86654608D01*
X157838531Y-86670883D01*
X157915615Y-86918256D01*
X157919256Y-86933029D01*
X157969032Y-87204648D01*
X157970866Y-87219752D01*
X157987175Y-87489360D01*
X157985938Y-87489435D01*
X157986525Y-87491785D01*
X157983520Y-87503000D01*
X157987813Y-87519024D01*
X157987813Y-87534887D01*
X157988000Y-87536308D01*
X157988000Y-103344692D01*
X157987813Y-103346113D01*
X157987813Y-103361978D01*
X157983520Y-103378000D01*
X157985246Y-103384443D01*
X157983778Y-103389444D01*
X157986674Y-103389770D01*
X157976853Y-103476934D01*
X157970574Y-103504443D01*
X157942381Y-103585013D01*
X157930140Y-103610432D01*
X157884723Y-103682714D01*
X157867130Y-103704774D01*
X157806774Y-103765130D01*
X157784714Y-103782723D01*
X157712432Y-103828140D01*
X157687013Y-103840381D01*
X157606443Y-103868574D01*
X157578934Y-103874853D01*
X157491770Y-103884674D01*
X157491469Y-103882000D01*
X157486710Y-103883318D01*
X157480000Y-103881520D01*
X157463978Y-103885813D01*
X157448113Y-103885813D01*
X157446692Y-103886000D01*
X134653308Y-103886000D01*
X134651887Y-103885813D01*
X134636022Y-103885813D01*
X134620000Y-103881520D01*
X134613557Y-103883246D01*
X134608556Y-103881778D01*
X134608230Y-103884674D01*
X134521066Y-103874853D01*
X134493557Y-103868574D01*
X134412987Y-103840381D01*
X134387568Y-103828140D01*
X134315286Y-103782723D01*
X134293226Y-103765130D01*
X134232870Y-103704774D01*
X134215277Y-103682714D01*
X134169860Y-103610432D01*
X134157619Y-103585013D01*
X134129426Y-103504443D01*
X134123147Y-103476934D01*
X134113326Y-103389770D01*
X134116000Y-103389469D01*
X134114682Y-103384710D01*
X134116480Y-103378000D01*
X134112187Y-103361978D01*
X134112187Y-103346113D01*
X134112000Y-103344692D01*
X134112000Y-87536308D01*
X134112187Y-87534887D01*
X134112187Y-87519024D01*
X134116480Y-87503000D01*
X134113583Y-87492188D01*
X134114385Y-87489454D01*
X134112825Y-87489360D01*
X134113334Y-87480953D01*
X134419707Y-87480953D01*
X134436194Y-87766878D01*
X134437019Y-87771083D01*
X134437020Y-87771091D01*
X134468853Y-87933342D01*
X134491332Y-88047920D01*
X134492719Y-88051970D01*
X134492720Y-88051975D01*
X134514484Y-88115542D01*
X134584102Y-88318878D01*
X134712787Y-88574740D01*
X134715213Y-88578269D01*
X134715216Y-88578275D01*
X134753920Y-88634589D01*
X134875006Y-88810770D01*
X135067756Y-89022600D01*
X135287472Y-89206311D01*
X135530088Y-89358503D01*
X135533990Y-89360265D01*
X135533994Y-89360267D01*
X135787202Y-89474595D01*
X135787206Y-89474597D01*
X135791114Y-89476361D01*
X135795233Y-89477581D01*
X136061606Y-89556485D01*
X136061611Y-89556486D01*
X136065719Y-89557703D01*
X136069953Y-89558351D01*
X136069958Y-89558352D01*
X136317214Y-89596187D01*
X136348824Y-89601024D01*
X136494589Y-89603314D01*
X136630898Y-89605456D01*
X136630904Y-89605456D01*
X136635189Y-89605523D01*
X136639441Y-89605008D01*
X136639449Y-89605008D01*
X136859221Y-89578411D01*
X136919514Y-89571115D01*
X136923662Y-89570027D01*
X136923666Y-89570026D01*
X137192388Y-89499528D01*
X137196539Y-89498439D01*
X137200500Y-89496799D01*
X137200504Y-89496797D01*
X137343370Y-89437620D01*
X137461138Y-89388839D01*
X137510034Y-89360267D01*
X137704717Y-89246503D01*
X137704718Y-89246503D01*
X137708415Y-89244342D01*
X137933793Y-89067623D01*
X137980491Y-89019435D01*
X138130119Y-88865030D01*
X138133102Y-88861952D01*
X138135635Y-88858504D01*
X138135639Y-88858499D01*
X138300117Y-88634589D01*
X138302655Y-88631134D01*
X138331355Y-88578275D01*
X138437263Y-88383217D01*
X138437264Y-88383215D01*
X138439313Y-88379441D01*
X138540548Y-88111530D01*
X138604487Y-87832358D01*
X138629946Y-87547092D01*
X138630408Y-87503000D01*
X138628905Y-87480953D01*
X153469707Y-87480953D01*
X153486194Y-87766878D01*
X153487019Y-87771083D01*
X153487020Y-87771091D01*
X153518853Y-87933342D01*
X153541332Y-88047920D01*
X153542719Y-88051970D01*
X153542720Y-88051975D01*
X153564484Y-88115542D01*
X153634102Y-88318878D01*
X153762787Y-88574740D01*
X153765213Y-88578269D01*
X153765216Y-88578275D01*
X153803920Y-88634589D01*
X153925006Y-88810770D01*
X154117756Y-89022600D01*
X154337472Y-89206311D01*
X154580088Y-89358503D01*
X154583990Y-89360265D01*
X154583994Y-89360267D01*
X154837202Y-89474595D01*
X154837206Y-89474597D01*
X154841114Y-89476361D01*
X154845233Y-89477581D01*
X155111606Y-89556485D01*
X155111611Y-89556486D01*
X155115719Y-89557703D01*
X155119953Y-89558351D01*
X155119958Y-89558352D01*
X155367214Y-89596187D01*
X155398824Y-89601024D01*
X155544589Y-89603314D01*
X155680898Y-89605456D01*
X155680904Y-89605456D01*
X155685189Y-89605523D01*
X155689441Y-89605008D01*
X155689449Y-89605008D01*
X155909221Y-89578411D01*
X155969514Y-89571115D01*
X155973662Y-89570027D01*
X155973666Y-89570026D01*
X156242388Y-89499528D01*
X156246539Y-89498439D01*
X156250500Y-89496799D01*
X156250504Y-89496797D01*
X156393370Y-89437620D01*
X156511138Y-89388839D01*
X156560034Y-89360267D01*
X156754717Y-89246503D01*
X156754718Y-89246503D01*
X156758415Y-89244342D01*
X156983793Y-89067623D01*
X157030491Y-89019435D01*
X157180119Y-88865030D01*
X157183102Y-88861952D01*
X157185635Y-88858504D01*
X157185639Y-88858499D01*
X157350117Y-88634589D01*
X157352655Y-88631134D01*
X157381355Y-88578275D01*
X157487263Y-88383217D01*
X157487264Y-88383215D01*
X157489313Y-88379441D01*
X157590548Y-88111530D01*
X157654487Y-87832358D01*
X157679946Y-87547092D01*
X157680408Y-87503000D01*
X157660928Y-87217263D01*
X157602850Y-86936814D01*
X157507248Y-86666842D01*
X157375891Y-86412342D01*
X157373428Y-86408837D01*
X157213673Y-86181529D01*
X157213668Y-86181523D01*
X157211209Y-86178024D01*
X157016251Y-85968224D01*
X157012935Y-85965510D01*
X157012932Y-85965507D01*
X156797941Y-85789539D01*
X156794623Y-85786823D01*
X156550427Y-85637180D01*
X156532419Y-85629275D01*
X156292110Y-85523786D01*
X156292106Y-85523785D01*
X156288182Y-85522062D01*
X156012739Y-85443600D01*
X155802881Y-85413733D01*
X155733448Y-85403851D01*
X155733446Y-85403851D01*
X155729196Y-85403246D01*
X155577333Y-85402451D01*
X155447086Y-85401769D01*
X155447080Y-85401769D01*
X155442800Y-85401747D01*
X155438556Y-85402306D01*
X155438552Y-85402306D01*
X155345398Y-85414570D01*
X155158851Y-85439129D01*
X155154711Y-85440262D01*
X155154709Y-85440262D01*
X155138209Y-85444776D01*
X154882602Y-85514702D01*
X154878654Y-85516386D01*
X154623117Y-85625382D01*
X154623113Y-85625384D01*
X154619165Y-85627068D01*
X154373415Y-85774146D01*
X154149900Y-85953215D01*
X153952755Y-86160962D01*
X153785629Y-86393543D01*
X153651614Y-86646653D01*
X153650139Y-86650684D01*
X153555755Y-86908602D01*
X153553190Y-86915610D01*
X153492178Y-87195436D01*
X153469707Y-87480953D01*
X138628905Y-87480953D01*
X138610928Y-87217263D01*
X138552850Y-86936814D01*
X138457248Y-86666842D01*
X138325891Y-86412342D01*
X138323428Y-86408837D01*
X138163673Y-86181529D01*
X138163668Y-86181523D01*
X138161209Y-86178024D01*
X137966251Y-85968224D01*
X137962935Y-85965510D01*
X137962932Y-85965507D01*
X137747941Y-85789539D01*
X137744623Y-85786823D01*
X137500427Y-85637180D01*
X137482419Y-85629275D01*
X137242110Y-85523786D01*
X137242106Y-85523785D01*
X137238182Y-85522062D01*
X136962739Y-85443600D01*
X136752881Y-85413733D01*
X136683448Y-85403851D01*
X136683446Y-85403851D01*
X136679196Y-85403246D01*
X136527333Y-85402451D01*
X136397086Y-85401769D01*
X136397080Y-85401769D01*
X136392800Y-85401747D01*
X136388556Y-85402306D01*
X136388552Y-85402306D01*
X136295398Y-85414570D01*
X136108851Y-85439129D01*
X136104711Y-85440262D01*
X136104709Y-85440262D01*
X136088209Y-85444776D01*
X135832602Y-85514702D01*
X135828654Y-85516386D01*
X135573117Y-85625382D01*
X135573113Y-85625384D01*
X135569165Y-85627068D01*
X135323415Y-85774146D01*
X135099900Y-85953215D01*
X134902755Y-86160962D01*
X134735629Y-86393543D01*
X134601614Y-86646653D01*
X134600139Y-86650684D01*
X134505755Y-86908602D01*
X134503190Y-86915610D01*
X134442178Y-87195436D01*
X134419707Y-87480953D01*
X134113334Y-87480953D01*
X134129134Y-87219752D01*
X134130968Y-87204648D01*
X134180744Y-86933029D01*
X134184385Y-86918256D01*
X134261469Y-86670883D01*
X134266541Y-86654608D01*
X134271935Y-86640386D01*
X134372856Y-86416149D01*
X134385270Y-86388566D01*
X134392333Y-86375110D01*
X134535197Y-86138783D01*
X134543839Y-86126262D01*
X134578646Y-86081835D01*
X134714148Y-85908879D01*
X134724238Y-85897491D01*
X134919491Y-85702238D01*
X134930879Y-85692148D01*
X135145777Y-85523786D01*
X135148263Y-85521838D01*
X135160784Y-85513196D01*
X135397110Y-85370333D01*
X135410566Y-85363270D01*
X135662390Y-85249933D01*
X135676608Y-85244541D01*
X135940256Y-85162385D01*
X135955029Y-85158744D01*
X136226648Y-85108968D01*
X136241752Y-85107134D01*
X136511360Y-85090825D01*
X136511435Y-85092062D01*
X136513785Y-85091475D01*
X136525000Y-85094480D01*
X136541024Y-85090187D01*
X136556887Y-85090187D01*
X136558308Y-85090000D01*
X155541692Y-85090000D01*
X155543113Y-85090187D01*
G37*
%TD.AperFunction*%
%TD*%
M02*
