%TF.GenerationSoftware,KiCad,Pcbnew,5.99.0-unknown-0e3b001c51~134~ubuntu20.04.1*%
%TF.CreationDate,2021-11-30T16:29:57+01:00*%
%TF.ProjectId,accelerometer,61636365-6c65-4726-9f6d-657465722e6b,0.0.1*%
%TF.SameCoordinates,Original*%
%TF.FileFunction,Soldermask,Top*%
%TF.FilePolarity,Negative*%
%FSLAX46Y46*%
G04 Gerber Fmt 4.6, Leading zero omitted, Abs format (unit mm)*
G04 Created by KiCad (PCBNEW 5.99.0-unknown-0e3b001c51~134~ubuntu20.04.1) date 2021-11-30 16:29:57*
%MOMM*%
%LPD*%
G01*
G04 APERTURE LIST*
G04 Aperture macros list*
%AMRoundRect*
0 Rectangle with rounded corners*
0 $1 Rounding radius*
0 $2 $3 $4 $5 $6 $7 $8 $9 X,Y pos of 4 corners*
0 Add a 4 corners polygon primitive as box body*
4,1,4,$2,$3,$4,$5,$6,$7,$8,$9,$2,$3,0*
0 Add four circle primitives for the rounded corners*
1,1,$1+$1,$2,$3*
1,1,$1+$1,$4,$5*
1,1,$1+$1,$6,$7*
1,1,$1+$1,$8,$9*
0 Add four rect primitives between the rounded corners*
20,1,$1+$1,$2,$3,$4,$5,0*
20,1,$1+$1,$4,$5,$6,$7,0*
20,1,$1+$1,$6,$7,$8,$9,0*
20,1,$1+$1,$8,$9,$2,$3,0*%
G04 Aperture macros list end*
%TA.AperFunction,Profile*%
%ADD10C,0.100000*%
%TD*%
%ADD11C,3.800000*%
%ADD12RoundRect,0.200000X0.275000X-0.200000X0.275000X0.200000X-0.275000X0.200000X-0.275000X-0.200000X0*%
%ADD13R,0.650000X1.060000*%
%ADD14RoundRect,0.250000X0.250000X2.500000X-0.250000X2.500000X-0.250000X-2.500000X0.250000X-2.500000X0*%
%ADD15RoundRect,0.250000X0.550000X1.250000X-0.550000X1.250000X-0.550000X-1.250000X0.550000X-1.250000X0*%
%ADD16RoundRect,0.225000X0.017678X-0.335876X0.335876X-0.017678X-0.017678X0.335876X-0.335876X0.017678X0*%
%ADD17RoundRect,0.225000X-0.017678X0.335876X-0.335876X0.017678X0.017678X-0.335876X0.335876X-0.017678X0*%
%ADD18RoundRect,0.225000X-0.225000X-0.250000X0.225000X-0.250000X0.225000X0.250000X-0.225000X0.250000X0*%
%ADD19RoundRect,0.218750X0.218750X0.256250X-0.218750X0.256250X-0.218750X-0.256250X0.218750X-0.256250X0*%
%ADD20R,1.750000X1.750000*%
%ADD21R,0.370000X0.650000*%
%ADD22R,0.650000X0.370000*%
%ADD23RoundRect,0.200000X-0.200000X-0.275000X0.200000X-0.275000X0.200000X0.275000X-0.200000X0.275000X0*%
G04 APERTURE END LIST*
D10*
X158115000Y-87503000D02*
G75*
G03*
X155575000Y-84963000I-2540000J0D01*
G01*
X133985000Y-103378000D02*
X133985000Y-87503000D01*
X158115000Y-103378000D02*
X158115000Y-87503000D01*
X133985000Y-103378000D02*
G75*
G03*
X134620000Y-104013000I635000J0D01*
G01*
X136525000Y-84963000D02*
G75*
G03*
X133985000Y-87503000I0J-2540000D01*
G01*
X155575000Y-84963000D02*
X136525000Y-84963000D01*
X158115000Y-103378000D02*
G75*
G02*
X157480000Y-104013000I-635000J0D01*
G01*
X134620000Y-104013000D02*
X157480000Y-104013000D01*
D11*
%TO.C,H3*%
X155575000Y-87503000D03*
%TD*%
D12*
%TO.C,R2*%
X152527000Y-93154000D03*
X152527000Y-91504000D03*
%TD*%
D13*
%TO.C,U2*%
X148529000Y-91143000D03*
X149479000Y-91143000D03*
X150429000Y-91143000D03*
X150429000Y-88943000D03*
X148529000Y-88943000D03*
%TD*%
D14*
%TO.C,J1*%
X153780000Y-98128000D03*
X151780000Y-98128000D03*
D15*
X149380000Y-100378000D03*
X156180000Y-100378000D03*
%TD*%
D14*
%TO.C,J2*%
X142335000Y-98128000D03*
X140335000Y-98128000D03*
X138335000Y-98128000D03*
D15*
X144735000Y-100378000D03*
X135935000Y-100378000D03*
%TD*%
D16*
%TO.C,C1*%
X144231992Y-93258008D03*
X145328008Y-92161992D03*
%TD*%
D17*
%TO.C,C2*%
X143042008Y-92161992D03*
X141945992Y-93258008D03*
%TD*%
D18*
%TO.C,C4*%
X148704000Y-93345000D03*
X150254000Y-93345000D03*
%TD*%
D19*
%TO.C,D1*%
X156362500Y-91821000D03*
X154787500Y-91821000D03*
%TD*%
D11*
%TO.C,H4*%
X136525000Y-87503000D03*
%TD*%
D17*
%TO.C,C3*%
X140756008Y-92161992D03*
X139659992Y-93258008D03*
%TD*%
D20*
%TO.C,U1*%
X143383000Y-88519000D03*
D21*
X144358000Y-86769000D03*
X143708000Y-86769000D03*
X143058000Y-86769000D03*
X142408000Y-86769000D03*
D22*
X141633000Y-87544000D03*
X141633000Y-88194000D03*
X141633000Y-88844000D03*
X141633000Y-89494000D03*
D21*
X142408000Y-90269000D03*
X143058000Y-90269000D03*
X143708000Y-90269000D03*
X144358000Y-90269000D03*
D22*
X145133000Y-89494000D03*
X145133000Y-88844000D03*
X145133000Y-88194000D03*
X145133000Y-87544000D03*
%TD*%
D23*
%TO.C,R1*%
X154750000Y-93599000D03*
X156400000Y-93599000D03*
%TD*%
D18*
%TO.C,C5*%
X148704000Y-86868000D03*
X150254000Y-86868000D03*
%TD*%
M02*
