%TF.GenerationSoftware,KiCad,Pcbnew,5.99.0-unknown-0e3b001c51~134~ubuntu20.04.1*%
%TF.CreationDate,2021-11-30T16:29:56+01:00*%
%TF.ProjectId,accelerometer,61636365-6c65-4726-9f6d-657465722e6b,0.0.1*%
%TF.SameCoordinates,Original*%
%TF.FileFunction,Copper,L1,Top*%
%TF.FilePolarity,Positive*%
%FSLAX46Y46*%
G04 Gerber Fmt 4.6, Leading zero omitted, Abs format (unit mm)*
G04 Created by KiCad (PCBNEW 5.99.0-unknown-0e3b001c51~134~ubuntu20.04.1) date 2021-11-30 16:29:56*
%MOMM*%
%LPD*%
G01*
G04 APERTURE LIST*
G04 Aperture macros list*
%AMRoundRect*
0 Rectangle with rounded corners*
0 $1 Rounding radius*
0 $2 $3 $4 $5 $6 $7 $8 $9 X,Y pos of 4 corners*
0 Add a 4 corners polygon primitive as box body*
4,1,4,$2,$3,$4,$5,$6,$7,$8,$9,$2,$3,0*
0 Add four circle primitives for the rounded corners*
1,1,$1+$1,$2,$3*
1,1,$1+$1,$4,$5*
1,1,$1+$1,$6,$7*
1,1,$1+$1,$8,$9*
0 Add four rect primitives between the rounded corners*
20,1,$1+$1,$2,$3,$4,$5,0*
20,1,$1+$1,$4,$5,$6,$7,0*
20,1,$1+$1,$6,$7,$8,$9,0*
20,1,$1+$1,$8,$9,$2,$3,0*%
G04 Aperture macros list end*
%TA.AperFunction,Profile*%
%ADD10C,0.100000*%
%TD*%
%TA.AperFunction,ComponentPad*%
%ADD11C,3.800000*%
%TD*%
%TA.AperFunction,SMDPad,CuDef*%
%ADD12RoundRect,0.200000X0.275000X-0.200000X0.275000X0.200000X-0.275000X0.200000X-0.275000X-0.200000X0*%
%TD*%
%TA.AperFunction,SMDPad,CuDef*%
%ADD13R,0.650000X1.060000*%
%TD*%
%TA.AperFunction,SMDPad,CuDef*%
%ADD14RoundRect,0.250000X0.250000X2.500000X-0.250000X2.500000X-0.250000X-2.500000X0.250000X-2.500000X0*%
%TD*%
%TA.AperFunction,SMDPad,CuDef*%
%ADD15RoundRect,0.250000X0.550000X1.250000X-0.550000X1.250000X-0.550000X-1.250000X0.550000X-1.250000X0*%
%TD*%
%TA.AperFunction,SMDPad,CuDef*%
%ADD16RoundRect,0.225000X0.017678X-0.335876X0.335876X-0.017678X-0.017678X0.335876X-0.335876X0.017678X0*%
%TD*%
%TA.AperFunction,SMDPad,CuDef*%
%ADD17RoundRect,0.225000X-0.017678X0.335876X-0.335876X0.017678X0.017678X-0.335876X0.335876X-0.017678X0*%
%TD*%
%TA.AperFunction,SMDPad,CuDef*%
%ADD18RoundRect,0.225000X-0.225000X-0.250000X0.225000X-0.250000X0.225000X0.250000X-0.225000X0.250000X0*%
%TD*%
%TA.AperFunction,SMDPad,CuDef*%
%ADD19RoundRect,0.218750X0.218750X0.256250X-0.218750X0.256250X-0.218750X-0.256250X0.218750X-0.256250X0*%
%TD*%
%TA.AperFunction,SMDPad,CuDef*%
%ADD20R,1.750000X1.750000*%
%TD*%
%TA.AperFunction,SMDPad,CuDef*%
%ADD21R,0.370000X0.650000*%
%TD*%
%TA.AperFunction,SMDPad,CuDef*%
%ADD22R,0.650000X0.370000*%
%TD*%
%TA.AperFunction,SMDPad,CuDef*%
%ADD23RoundRect,0.200000X-0.200000X-0.275000X0.200000X-0.275000X0.200000X0.275000X-0.200000X0.275000X0*%
%TD*%
%TA.AperFunction,ViaPad*%
%ADD24C,0.800000*%
%TD*%
%TA.AperFunction,Conductor*%
%ADD25C,0.250000*%
%TD*%
%TA.AperFunction,Conductor*%
%ADD26C,0.400000*%
%TD*%
G04 APERTURE END LIST*
D10*
X158115000Y-87503000D02*
G75*
G03*
X155575000Y-84963000I-2540000J0D01*
G01*
X133985000Y-103378000D02*
X133985000Y-87503000D01*
X158115000Y-103378000D02*
X158115000Y-87503000D01*
X133985000Y-103378000D02*
G75*
G03*
X134620000Y-104013000I635000J0D01*
G01*
X136525000Y-84963000D02*
G75*
G03*
X133985000Y-87503000I0J-2540000D01*
G01*
X155575000Y-84963000D02*
X136525000Y-84963000D01*
X158115000Y-103378000D02*
G75*
G02*
X157480000Y-104013000I-635000J0D01*
G01*
X134620000Y-104013000D02*
X157480000Y-104013000D01*
D11*
%TO.P,H3,1*%
%TO.N,N/C*%
X155575000Y-87503000D03*
%TD*%
D12*
%TO.P,R2,1*%
%TO.N,+5V*%
X152527000Y-93154000D03*
%TO.P,R2,2*%
%TO.N,Net-(R2-Pad2)*%
X152527000Y-91504000D03*
%TD*%
D13*
%TO.P,U2,1,VIN*%
%TO.N,+5V*%
X148529000Y-91143000D03*
%TO.P,U2,2,GND*%
%TO.N,GND*%
X149479000Y-91143000D03*
%TO.P,U2,3,EN*%
%TO.N,Net-(R2-Pad2)*%
X150429000Y-91143000D03*
%TO.P,U2,4,NC*%
%TO.N,unconnected-(U2-Pad4)*%
X150429000Y-88943000D03*
%TO.P,U2,5,VOUT*%
%TO.N,+3V3*%
X148529000Y-88943000D03*
%TD*%
D14*
%TO.P,J1,1,Pin_1*%
%TO.N,+5V*%
X153780000Y-98128000D03*
%TO.P,J1,2,Pin_2*%
%TO.N,GND*%
X151780000Y-98128000D03*
D15*
%TO.P,J1,MP*%
%TO.N,N/C*%
X149380000Y-100378000D03*
X156180000Y-100378000D03*
%TD*%
D14*
%TO.P,J2,1,Pin_1*%
%TO.N,Net-(J2-Pad1)*%
X142335000Y-98128000D03*
%TO.P,J2,2,Pin_2*%
%TO.N,Net-(J2-Pad2)*%
X140335000Y-98128000D03*
%TO.P,J2,3,Pin_3*%
%TO.N,Net-(J2-Pad3)*%
X138335000Y-98128000D03*
D15*
%TO.P,J2,MP*%
%TO.N,N/C*%
X144735000Y-100378000D03*
X135935000Y-100378000D03*
%TD*%
D16*
%TO.P,C1,1*%
%TO.N,Net-(J2-Pad1)*%
X144231992Y-93258008D03*
%TO.P,C1,2*%
%TO.N,GND*%
X145328008Y-92161992D03*
%TD*%
D17*
%TO.P,C2,1*%
%TO.N,Net-(J2-Pad2)*%
X143042008Y-92161992D03*
%TO.P,C2,2*%
%TO.N,GND*%
X141945992Y-93258008D03*
%TD*%
D18*
%TO.P,C4,1*%
%TO.N,+5V*%
X148704000Y-93345000D03*
%TO.P,C4,2*%
%TO.N,GND*%
X150254000Y-93345000D03*
%TD*%
D19*
%TO.P,D1,1,K*%
%TO.N,GND*%
X156362500Y-91821000D03*
%TO.P,D1,2,A*%
%TO.N,Net-(D1-Pad2)*%
X154787500Y-91821000D03*
%TD*%
D11*
%TO.P,H4,1*%
%TO.N,N/C*%
X136525000Y-87503000D03*
%TD*%
D17*
%TO.P,C3,1*%
%TO.N,Net-(J2-Pad3)*%
X140756008Y-92161992D03*
%TO.P,C3,2*%
%TO.N,GND*%
X139659992Y-93258008D03*
%TD*%
D20*
%TO.P,U1,0*%
%TO.N,N/C*%
X143383000Y-88519000D03*
D21*
%TO.P,U1,1*%
X144358000Y-86769000D03*
%TO.P,U1,2,ST*%
%TO.N,GND*%
X143708000Y-86769000D03*
%TO.P,U1,3,GND*%
X143058000Y-86769000D03*
%TO.P,U1,4*%
%TO.N,N/C*%
X142408000Y-86769000D03*
D22*
%TO.P,U1,5,GND*%
%TO.N,GND*%
X141633000Y-87544000D03*
%TO.P,U1,6,GND*%
X141633000Y-88194000D03*
%TO.P,U1,7,GND*%
X141633000Y-88844000D03*
%TO.P,U1,8,ZOUT*%
%TO.N,Net-(J2-Pad3)*%
X141633000Y-89494000D03*
D21*
%TO.P,U1,9*%
%TO.N,N/C*%
X142408000Y-90269000D03*
%TO.P,U1,10,YOUT*%
%TO.N,Net-(J2-Pad2)*%
X143058000Y-90269000D03*
%TO.P,U1,11*%
%TO.N,N/C*%
X143708000Y-90269000D03*
%TO.P,U1,12,XOUT*%
%TO.N,Net-(J2-Pad1)*%
X144358000Y-90269000D03*
D22*
%TO.P,U1,13*%
%TO.N,N/C*%
X145133000Y-89494000D03*
%TO.P,U1,14,VS*%
%TO.N,+3V3*%
X145133000Y-88844000D03*
%TO.P,U1,15,VS*%
X145133000Y-88194000D03*
%TO.P,U1,16*%
%TO.N,N/C*%
X145133000Y-87544000D03*
%TD*%
D23*
%TO.P,R1,1*%
%TO.N,+3V3*%
X154750000Y-93599000D03*
%TO.P,R1,2*%
%TO.N,Net-(D1-Pad2)*%
X156400000Y-93599000D03*
%TD*%
D18*
%TO.P,C5,1*%
%TO.N,+3V3*%
X148704000Y-86868000D03*
%TO.P,C5,2*%
%TO.N,GND*%
X150254000Y-86868000D03*
%TD*%
D24*
%TO.N,GND*%
X139573000Y-87757000D03*
X151384000Y-92456000D03*
X146812000Y-93726000D03*
X152273000Y-87503000D03*
%TD*%
D25*
%TO.N,Net-(J2-Pad1)*%
X143694346Y-92720362D02*
X143694346Y-92640346D01*
X144358000Y-91976692D02*
X144358000Y-90269000D01*
X142335000Y-98128000D02*
X142335000Y-93999692D01*
X144231992Y-93258008D02*
X143694346Y-92720362D01*
X143694346Y-92640346D02*
X144358000Y-91976692D01*
X142335000Y-93999692D02*
X143694346Y-92640346D01*
%TO.N,Net-(J2-Pad2)*%
X142436654Y-91636654D02*
X143058000Y-91015308D01*
X142516670Y-91636654D02*
X142436654Y-91636654D01*
X143058000Y-91015308D02*
X143058000Y-90269000D01*
X140335000Y-98128000D02*
X140335000Y-93738308D01*
X140335000Y-93738308D02*
X142436654Y-91636654D01*
X143042008Y-92161992D02*
X142516670Y-91636654D01*
%TO.N,Net-(J2-Pad3)*%
X138335000Y-98128000D02*
X138335000Y-93452308D01*
X140201454Y-91585854D02*
X141633000Y-90154308D01*
X138335000Y-93452308D02*
X139109254Y-92678054D01*
X140756008Y-92161992D02*
X140201454Y-91607438D01*
X139109254Y-92678054D02*
X140201454Y-91585854D01*
X140201454Y-91607438D02*
X140201454Y-91585854D01*
X141633000Y-90154308D02*
X141633000Y-89494000D01*
D26*
%TO.N,+5V*%
X153212800Y-94538800D02*
X152501600Y-94538800D01*
X152501600Y-94538800D02*
X149148800Y-94538800D01*
X148529000Y-91143000D02*
X148529000Y-92141000D01*
X148704000Y-92316000D02*
X148704000Y-93345000D01*
X148529000Y-92141000D02*
X148704000Y-92316000D01*
X148704000Y-94094000D02*
X148704000Y-93345000D01*
X149148800Y-94538800D02*
X148704000Y-94094000D01*
X153780000Y-95106000D02*
X153212800Y-94538800D01*
X152527000Y-94513400D02*
X152501600Y-94538800D01*
X153780000Y-98128000D02*
X153780000Y-95106000D01*
X152527000Y-93154000D02*
X152527000Y-94513400D01*
D25*
%TO.N,+3V3*%
X153670000Y-93218000D02*
X153670000Y-90678000D01*
X153670000Y-90678000D02*
X153035000Y-90043000D01*
X148529000Y-89855000D02*
X148529000Y-88943000D01*
X148717000Y-90043000D02*
X148529000Y-89855000D01*
X154051000Y-93599000D02*
X153670000Y-93218000D01*
X154750000Y-93599000D02*
X154051000Y-93599000D01*
X153035000Y-90043000D02*
X148717000Y-90043000D01*
%TO.N,Net-(D1-Pad2)*%
X156400000Y-93027000D02*
X156400000Y-93599000D01*
X156083000Y-92710000D02*
X156400000Y-93027000D01*
X155067000Y-92710000D02*
X156083000Y-92710000D01*
X154787500Y-92430500D02*
X155067000Y-92710000D01*
X154787500Y-91821000D02*
X154787500Y-92430500D01*
%TO.N,Net-(R2-Pad2)*%
X152527000Y-91504000D02*
X151702000Y-91504000D01*
X151702000Y-91504000D02*
X151341000Y-91143000D01*
X151341000Y-91143000D02*
X150429000Y-91143000D01*
%TD*%
%TA.AperFunction,Conductor*%
%TO.N,GND*%
G36*
X155543113Y-85090187D02*
G01*
X155558976Y-85090187D01*
X155575000Y-85094480D01*
X155585812Y-85091583D01*
X155588546Y-85092385D01*
X155588640Y-85090825D01*
X155858248Y-85107134D01*
X155873352Y-85108968D01*
X156144971Y-85158744D01*
X156159744Y-85162385D01*
X156423392Y-85244541D01*
X156437610Y-85249933D01*
X156689434Y-85363270D01*
X156702890Y-85370333D01*
X156939216Y-85513196D01*
X156951737Y-85521838D01*
X156954223Y-85523786D01*
X157169121Y-85692148D01*
X157180509Y-85702238D01*
X157375762Y-85897491D01*
X157385852Y-85908879D01*
X157543790Y-86110471D01*
X157556161Y-86126262D01*
X157564803Y-86138783D01*
X157707667Y-86375110D01*
X157714730Y-86388566D01*
X157826777Y-86637525D01*
X157828065Y-86640386D01*
X157833459Y-86654608D01*
X157859484Y-86738124D01*
X157915615Y-86918256D01*
X157919256Y-86933029D01*
X157969032Y-87204648D01*
X157970866Y-87219752D01*
X157987175Y-87489360D01*
X157985938Y-87489435D01*
X157986525Y-87491785D01*
X157983520Y-87503000D01*
X157987813Y-87519024D01*
X157987813Y-87534887D01*
X157988000Y-87536308D01*
X157988000Y-103344692D01*
X157987813Y-103346113D01*
X157987813Y-103361978D01*
X157983520Y-103378000D01*
X157985246Y-103384443D01*
X157983778Y-103389444D01*
X157986674Y-103389770D01*
X157976853Y-103476934D01*
X157970574Y-103504443D01*
X157942381Y-103585013D01*
X157930140Y-103610432D01*
X157884723Y-103682714D01*
X157867130Y-103704774D01*
X157806774Y-103765130D01*
X157784714Y-103782723D01*
X157712432Y-103828140D01*
X157687013Y-103840381D01*
X157606443Y-103868574D01*
X157578934Y-103874853D01*
X157491770Y-103884674D01*
X157491469Y-103882000D01*
X157486710Y-103883318D01*
X157480000Y-103881520D01*
X157463978Y-103885813D01*
X157448113Y-103885813D01*
X157446692Y-103886000D01*
X134653308Y-103886000D01*
X134651887Y-103885813D01*
X134636022Y-103885813D01*
X134620000Y-103881520D01*
X134613557Y-103883246D01*
X134608556Y-103881778D01*
X134608230Y-103884674D01*
X134521066Y-103874853D01*
X134493557Y-103868574D01*
X134412987Y-103840381D01*
X134387568Y-103828140D01*
X134315286Y-103782723D01*
X134293226Y-103765130D01*
X134232870Y-103704774D01*
X134215277Y-103682714D01*
X134169860Y-103610432D01*
X134157619Y-103585013D01*
X134129426Y-103504443D01*
X134123147Y-103476934D01*
X134113326Y-103389770D01*
X134116000Y-103389469D01*
X134114682Y-103384710D01*
X134116480Y-103378000D01*
X134112187Y-103361978D01*
X134112187Y-103346113D01*
X134112000Y-103344692D01*
X134112000Y-101681834D01*
X134934500Y-101681834D01*
X134937481Y-101713369D01*
X134982366Y-101841184D01*
X134987958Y-101848754D01*
X134987959Y-101848757D01*
X135050335Y-101933206D01*
X135062850Y-101950150D01*
X135070421Y-101955742D01*
X135164243Y-102025041D01*
X135164246Y-102025042D01*
X135171816Y-102030634D01*
X135299631Y-102075519D01*
X135307277Y-102076242D01*
X135307278Y-102076242D01*
X135313248Y-102076806D01*
X135331166Y-102078500D01*
X136538834Y-102078500D01*
X136556752Y-102076806D01*
X136562722Y-102076242D01*
X136562723Y-102076242D01*
X136570369Y-102075519D01*
X136698184Y-102030634D01*
X136705754Y-102025042D01*
X136705757Y-102025041D01*
X136799579Y-101955742D01*
X136807150Y-101950150D01*
X136819665Y-101933206D01*
X136882041Y-101848757D01*
X136882042Y-101848754D01*
X136887634Y-101841184D01*
X136932519Y-101713369D01*
X136935500Y-101681834D01*
X143734500Y-101681834D01*
X143737481Y-101713369D01*
X143782366Y-101841184D01*
X143787958Y-101848754D01*
X143787959Y-101848757D01*
X143850335Y-101933206D01*
X143862850Y-101950150D01*
X143870421Y-101955742D01*
X143964243Y-102025041D01*
X143964246Y-102025042D01*
X143971816Y-102030634D01*
X144099631Y-102075519D01*
X144107277Y-102076242D01*
X144107278Y-102076242D01*
X144113248Y-102076806D01*
X144131166Y-102078500D01*
X145338834Y-102078500D01*
X145356752Y-102076806D01*
X145362722Y-102076242D01*
X145362723Y-102076242D01*
X145370369Y-102075519D01*
X145498184Y-102030634D01*
X145505754Y-102025042D01*
X145505757Y-102025041D01*
X145599579Y-101955742D01*
X145607150Y-101950150D01*
X145619665Y-101933206D01*
X145682041Y-101848757D01*
X145682042Y-101848754D01*
X145687634Y-101841184D01*
X145732519Y-101713369D01*
X145735500Y-101681834D01*
X148379500Y-101681834D01*
X148382481Y-101713369D01*
X148427366Y-101841184D01*
X148432958Y-101848754D01*
X148432959Y-101848757D01*
X148495335Y-101933206D01*
X148507850Y-101950150D01*
X148515421Y-101955742D01*
X148609243Y-102025041D01*
X148609246Y-102025042D01*
X148616816Y-102030634D01*
X148744631Y-102075519D01*
X148752277Y-102076242D01*
X148752278Y-102076242D01*
X148758248Y-102076806D01*
X148776166Y-102078500D01*
X149983834Y-102078500D01*
X150001752Y-102076806D01*
X150007722Y-102076242D01*
X150007723Y-102076242D01*
X150015369Y-102075519D01*
X150143184Y-102030634D01*
X150150754Y-102025042D01*
X150150757Y-102025041D01*
X150244579Y-101955742D01*
X150252150Y-101950150D01*
X150264665Y-101933206D01*
X150327041Y-101848757D01*
X150327042Y-101848754D01*
X150332634Y-101841184D01*
X150377519Y-101713369D01*
X150380500Y-101681834D01*
X155179500Y-101681834D01*
X155182481Y-101713369D01*
X155227366Y-101841184D01*
X155232958Y-101848754D01*
X155232959Y-101848757D01*
X155295335Y-101933206D01*
X155307850Y-101950150D01*
X155315421Y-101955742D01*
X155409243Y-102025041D01*
X155409246Y-102025042D01*
X155416816Y-102030634D01*
X155544631Y-102075519D01*
X155552277Y-102076242D01*
X155552278Y-102076242D01*
X155558248Y-102076806D01*
X155576166Y-102078500D01*
X156783834Y-102078500D01*
X156801752Y-102076806D01*
X156807722Y-102076242D01*
X156807723Y-102076242D01*
X156815369Y-102075519D01*
X156943184Y-102030634D01*
X156950754Y-102025042D01*
X156950757Y-102025041D01*
X157044579Y-101955742D01*
X157052150Y-101950150D01*
X157064665Y-101933206D01*
X157127041Y-101848757D01*
X157127042Y-101848754D01*
X157132634Y-101841184D01*
X157177519Y-101713369D01*
X157180500Y-101681834D01*
X157180500Y-99074166D01*
X157177519Y-99042631D01*
X157132634Y-98914816D01*
X157127042Y-98907246D01*
X157127041Y-98907243D01*
X157057742Y-98813421D01*
X157052150Y-98805850D01*
X157035206Y-98793335D01*
X156950757Y-98730959D01*
X156950754Y-98730958D01*
X156943184Y-98725366D01*
X156815369Y-98680481D01*
X156807723Y-98679758D01*
X156807722Y-98679758D01*
X156801752Y-98679194D01*
X156783834Y-98677500D01*
X155576166Y-98677500D01*
X155558248Y-98679194D01*
X155552278Y-98679758D01*
X155552277Y-98679758D01*
X155544631Y-98680481D01*
X155416816Y-98725366D01*
X155409246Y-98730958D01*
X155409243Y-98730959D01*
X155324794Y-98793335D01*
X155307850Y-98805850D01*
X155302258Y-98813421D01*
X155232959Y-98907243D01*
X155232958Y-98907246D01*
X155227366Y-98914816D01*
X155182481Y-99042631D01*
X155179500Y-99074166D01*
X155179500Y-101681834D01*
X150380500Y-101681834D01*
X150380500Y-100672292D01*
X151026001Y-100672292D01*
X151026370Y-100679110D01*
X151031841Y-100729482D01*
X151035470Y-100744741D01*
X151080222Y-100864118D01*
X151088754Y-100879704D01*
X151164572Y-100980867D01*
X151177133Y-100993428D01*
X151278296Y-101069246D01*
X151293882Y-101077778D01*
X151413265Y-101122533D01*
X151428510Y-101126158D01*
X151478892Y-101131631D01*
X151485706Y-101132000D01*
X151634885Y-101132000D01*
X151650124Y-101127525D01*
X151651329Y-101126135D01*
X151653000Y-101118452D01*
X151653000Y-101113884D01*
X151907000Y-101113884D01*
X151911475Y-101129123D01*
X151912865Y-101130328D01*
X151920548Y-101131999D01*
X152074292Y-101131999D01*
X152081110Y-101131630D01*
X152131482Y-101126159D01*
X152146741Y-101122530D01*
X152266118Y-101077778D01*
X152281704Y-101069246D01*
X152382867Y-100993428D01*
X152395428Y-100980867D01*
X152471246Y-100879704D01*
X152479778Y-100864118D01*
X152524533Y-100744735D01*
X152528158Y-100729490D01*
X152533631Y-100679108D01*
X152534000Y-100672294D01*
X152534000Y-98273115D01*
X152529525Y-98257876D01*
X152528135Y-98256671D01*
X152520452Y-98255000D01*
X151925115Y-98255000D01*
X151909876Y-98259475D01*
X151908671Y-98260865D01*
X151907000Y-98268548D01*
X151907000Y-101113884D01*
X151653000Y-101113884D01*
X151653000Y-98273115D01*
X151648525Y-98257876D01*
X151647135Y-98256671D01*
X151639452Y-98255000D01*
X151044116Y-98255000D01*
X151028877Y-98259475D01*
X151027672Y-98260865D01*
X151026001Y-98268548D01*
X151026001Y-100672292D01*
X150380500Y-100672292D01*
X150380500Y-99074166D01*
X150377519Y-99042631D01*
X150332634Y-98914816D01*
X150327042Y-98907246D01*
X150327041Y-98907243D01*
X150257742Y-98813421D01*
X150252150Y-98805850D01*
X150235206Y-98793335D01*
X150150757Y-98730959D01*
X150150754Y-98730958D01*
X150143184Y-98725366D01*
X150015369Y-98680481D01*
X150007723Y-98679758D01*
X150007722Y-98679758D01*
X150001752Y-98679194D01*
X149983834Y-98677500D01*
X148776166Y-98677500D01*
X148758248Y-98679194D01*
X148752278Y-98679758D01*
X148752277Y-98679758D01*
X148744631Y-98680481D01*
X148616816Y-98725366D01*
X148609246Y-98730958D01*
X148609243Y-98730959D01*
X148524794Y-98793335D01*
X148507850Y-98805850D01*
X148502258Y-98813421D01*
X148432959Y-98907243D01*
X148432958Y-98907246D01*
X148427366Y-98914816D01*
X148382481Y-99042631D01*
X148379500Y-99074166D01*
X148379500Y-101681834D01*
X145735500Y-101681834D01*
X145735500Y-99074166D01*
X145732519Y-99042631D01*
X145687634Y-98914816D01*
X145682042Y-98907246D01*
X145682041Y-98907243D01*
X145612742Y-98813421D01*
X145607150Y-98805850D01*
X145590206Y-98793335D01*
X145505757Y-98730959D01*
X145505754Y-98730958D01*
X145498184Y-98725366D01*
X145370369Y-98680481D01*
X145362723Y-98679758D01*
X145362722Y-98679758D01*
X145356752Y-98679194D01*
X145338834Y-98677500D01*
X144131166Y-98677500D01*
X144113248Y-98679194D01*
X144107278Y-98679758D01*
X144107277Y-98679758D01*
X144099631Y-98680481D01*
X143971816Y-98725366D01*
X143964246Y-98730958D01*
X143964243Y-98730959D01*
X143879794Y-98793335D01*
X143862850Y-98805850D01*
X143857258Y-98813421D01*
X143787959Y-98907243D01*
X143787958Y-98907246D01*
X143782366Y-98914816D01*
X143737481Y-99042631D01*
X143734500Y-99074166D01*
X143734500Y-101681834D01*
X136935500Y-101681834D01*
X136935500Y-100681834D01*
X137634500Y-100681834D01*
X137637481Y-100713369D01*
X137682366Y-100841184D01*
X137687958Y-100848754D01*
X137687959Y-100848757D01*
X137699305Y-100864118D01*
X137762850Y-100950150D01*
X137770421Y-100955742D01*
X137864243Y-101025041D01*
X137864246Y-101025042D01*
X137871816Y-101030634D01*
X137999631Y-101075519D01*
X138007277Y-101076242D01*
X138007278Y-101076242D01*
X138013248Y-101076806D01*
X138031166Y-101078500D01*
X138638834Y-101078500D01*
X138656752Y-101076806D01*
X138662722Y-101076242D01*
X138662723Y-101076242D01*
X138670369Y-101075519D01*
X138798184Y-101030634D01*
X138805754Y-101025042D01*
X138805757Y-101025041D01*
X138899579Y-100955742D01*
X138907150Y-100950150D01*
X138970695Y-100864118D01*
X138982041Y-100848757D01*
X138982042Y-100848754D01*
X138987634Y-100841184D01*
X139032519Y-100713369D01*
X139035500Y-100681834D01*
X139035500Y-95574166D01*
X139032519Y-95542631D01*
X138987634Y-95414816D01*
X138982042Y-95407246D01*
X138982041Y-95407243D01*
X138912742Y-95313421D01*
X138907150Y-95305850D01*
X138805758Y-95230960D01*
X138805757Y-95230959D01*
X138805754Y-95230958D01*
X138798184Y-95225366D01*
X138744751Y-95206602D01*
X138687106Y-95165158D01*
X138661018Y-95099129D01*
X138660500Y-95087719D01*
X138660500Y-93639324D01*
X138680502Y-93571203D01*
X138697405Y-93550229D01*
X138741433Y-93506201D01*
X138803745Y-93472175D01*
X138874560Y-93477240D01*
X138928726Y-93516345D01*
X138951214Y-93544315D01*
X138955767Y-93549389D01*
X139059575Y-93653197D01*
X139073519Y-93660811D01*
X139075352Y-93660680D01*
X139081969Y-93656428D01*
X139570898Y-93167499D01*
X139633210Y-93133473D01*
X139704025Y-93138538D01*
X139749088Y-93167499D01*
X139750502Y-93168913D01*
X139784528Y-93231225D01*
X139779463Y-93302040D01*
X139750502Y-93347103D01*
X139264801Y-93832804D01*
X139257189Y-93846744D01*
X139257321Y-93848580D01*
X139261570Y-93855192D01*
X139368611Y-93962233D01*
X139373688Y-93966789D01*
X139410790Y-93996619D01*
X139424137Y-94004838D01*
X139533674Y-94054643D01*
X139550734Y-94059632D01*
X139668787Y-94076537D01*
X139686552Y-94076537D01*
X139804605Y-94059632D01*
X139821662Y-94054643D01*
X139831349Y-94050239D01*
X139901640Y-94040253D01*
X139966171Y-94069854D01*
X140004455Y-94129644D01*
X140009500Y-94164940D01*
X140009500Y-95087719D01*
X139989498Y-95155840D01*
X139935842Y-95202333D01*
X139925252Y-95206601D01*
X139871816Y-95225366D01*
X139864246Y-95230958D01*
X139864243Y-95230959D01*
X139864242Y-95230960D01*
X139762850Y-95305850D01*
X139757258Y-95313421D01*
X139687959Y-95407243D01*
X139687958Y-95407246D01*
X139682366Y-95414816D01*
X139637481Y-95542631D01*
X139634500Y-95574166D01*
X139634500Y-100681834D01*
X139637481Y-100713369D01*
X139682366Y-100841184D01*
X139687958Y-100848754D01*
X139687959Y-100848757D01*
X139699305Y-100864118D01*
X139762850Y-100950150D01*
X139770421Y-100955742D01*
X139864243Y-101025041D01*
X139864246Y-101025042D01*
X139871816Y-101030634D01*
X139999631Y-101075519D01*
X140007277Y-101076242D01*
X140007278Y-101076242D01*
X140013248Y-101076806D01*
X140031166Y-101078500D01*
X140638834Y-101078500D01*
X140656752Y-101076806D01*
X140662722Y-101076242D01*
X140662723Y-101076242D01*
X140670369Y-101075519D01*
X140798184Y-101030634D01*
X140805754Y-101025042D01*
X140805757Y-101025041D01*
X140899579Y-100955742D01*
X140907150Y-100950150D01*
X140970695Y-100864118D01*
X140982041Y-100848757D01*
X140982042Y-100848754D01*
X140987634Y-100841184D01*
X141032519Y-100713369D01*
X141035500Y-100681834D01*
X141035500Y-95574166D01*
X141032519Y-95542631D01*
X140987634Y-95414816D01*
X140982042Y-95407246D01*
X140982041Y-95407243D01*
X140912742Y-95313421D01*
X140907150Y-95305850D01*
X140805758Y-95230960D01*
X140805757Y-95230959D01*
X140805754Y-95230958D01*
X140798184Y-95225366D01*
X140744751Y-95206602D01*
X140687106Y-95165158D01*
X140661018Y-95099129D01*
X140660500Y-95087719D01*
X140660500Y-93925324D01*
X140680502Y-93857203D01*
X140697405Y-93836229D01*
X141027433Y-93506201D01*
X141089745Y-93472175D01*
X141160560Y-93477240D01*
X141214726Y-93516345D01*
X141237214Y-93544315D01*
X141241767Y-93549389D01*
X141345575Y-93653197D01*
X141359519Y-93660811D01*
X141361352Y-93660680D01*
X141367969Y-93656428D01*
X141856898Y-93167499D01*
X141919210Y-93133473D01*
X141990025Y-93138538D01*
X142035088Y-93167499D01*
X142036502Y-93168913D01*
X142070528Y-93231225D01*
X142065463Y-93302040D01*
X142036502Y-93347103D01*
X141550801Y-93832804D01*
X141543189Y-93846744D01*
X141543321Y-93848580D01*
X141547570Y-93855192D01*
X141654611Y-93962233D01*
X141659688Y-93966789D01*
X141696790Y-93996619D01*
X141710137Y-94004838D01*
X141819674Y-94054643D01*
X141836734Y-94059631D01*
X141901361Y-94068886D01*
X141965958Y-94098343D01*
X142004376Y-94158047D01*
X142009500Y-94193614D01*
X142009500Y-95087719D01*
X141989498Y-95155840D01*
X141935842Y-95202333D01*
X141925252Y-95206601D01*
X141871816Y-95225366D01*
X141864246Y-95230958D01*
X141864243Y-95230959D01*
X141864242Y-95230960D01*
X141762850Y-95305850D01*
X141757258Y-95313421D01*
X141687959Y-95407243D01*
X141687958Y-95407246D01*
X141682366Y-95414816D01*
X141637481Y-95542631D01*
X141634500Y-95574166D01*
X141634500Y-100681834D01*
X141637481Y-100713369D01*
X141682366Y-100841184D01*
X141687958Y-100848754D01*
X141687959Y-100848757D01*
X141699305Y-100864118D01*
X141762850Y-100950150D01*
X141770421Y-100955742D01*
X141864243Y-101025041D01*
X141864246Y-101025042D01*
X141871816Y-101030634D01*
X141999631Y-101075519D01*
X142007277Y-101076242D01*
X142007278Y-101076242D01*
X142013248Y-101076806D01*
X142031166Y-101078500D01*
X142638834Y-101078500D01*
X142656752Y-101076806D01*
X142662722Y-101076242D01*
X142662723Y-101076242D01*
X142670369Y-101075519D01*
X142798184Y-101030634D01*
X142805754Y-101025042D01*
X142805757Y-101025041D01*
X142899579Y-100955742D01*
X142907150Y-100950150D01*
X142970695Y-100864118D01*
X142982041Y-100848757D01*
X142982042Y-100848754D01*
X142987634Y-100841184D01*
X143032519Y-100713369D01*
X143035500Y-100681834D01*
X143035500Y-95574166D01*
X143032519Y-95542631D01*
X142987634Y-95414816D01*
X142982042Y-95407246D01*
X142982041Y-95407243D01*
X142912742Y-95313421D01*
X142907150Y-95305850D01*
X142805758Y-95230960D01*
X142805757Y-95230959D01*
X142805754Y-95230958D01*
X142798184Y-95225366D01*
X142744751Y-95206602D01*
X142687106Y-95165158D01*
X142661018Y-95099129D01*
X142660500Y-95087719D01*
X142660500Y-94186708D01*
X142680502Y-94118587D01*
X142697405Y-94097613D01*
X143343499Y-93451519D01*
X143405811Y-93417493D01*
X143476626Y-93422558D01*
X143534529Y-93466552D01*
X143571563Y-93517525D01*
X143972475Y-93918437D01*
X143976476Y-93921344D01*
X143976482Y-93921349D01*
X144021229Y-93953859D01*
X144054089Y-93977733D01*
X144182277Y-94019384D01*
X144317063Y-94019384D01*
X144351677Y-94008137D01*
X144435821Y-93980797D01*
X144435823Y-93980796D01*
X144445250Y-93977733D01*
X144453272Y-93971905D01*
X144522857Y-93921349D01*
X144522863Y-93921344D01*
X144526864Y-93918437D01*
X144892421Y-93552880D01*
X144895328Y-93548879D01*
X144895333Y-93548873D01*
X144945889Y-93479288D01*
X144945890Y-93479287D01*
X144951717Y-93471266D01*
X144958134Y-93451519D01*
X144990303Y-93352512D01*
X144993368Y-93343079D01*
X144993368Y-93208293D01*
X144951717Y-93080105D01*
X144954312Y-93079262D01*
X144943989Y-93024298D01*
X144970688Y-92958513D01*
X145028715Y-92917607D01*
X145099647Y-92914565D01*
X145121512Y-92922171D01*
X145201690Y-92958627D01*
X145218750Y-92963616D01*
X145336803Y-92980521D01*
X145354568Y-92980521D01*
X145472621Y-92963616D01*
X145489681Y-92958626D01*
X145599219Y-92908822D01*
X145612566Y-92900603D01*
X145649676Y-92870766D01*
X145654734Y-92866228D01*
X145740879Y-92780084D01*
X145748489Y-92766146D01*
X145748358Y-92764310D01*
X145744107Y-92757696D01*
X145237498Y-92251087D01*
X145203472Y-92188775D01*
X145205307Y-92163124D01*
X145512811Y-92163124D01*
X145512942Y-92164958D01*
X145517193Y-92171572D01*
X145920480Y-92574859D01*
X145934424Y-92582473D01*
X145936257Y-92582342D01*
X145942871Y-92578092D01*
X146032244Y-92488718D01*
X146036782Y-92483660D01*
X146066619Y-92446550D01*
X146074838Y-92433203D01*
X146124642Y-92323665D01*
X146129632Y-92306605D01*
X146146537Y-92188552D01*
X146146537Y-92170787D01*
X146129632Y-92052734D01*
X146124643Y-92035674D01*
X146074838Y-91926137D01*
X146066619Y-91912790D01*
X146036789Y-91875688D01*
X146032233Y-91870611D01*
X145928426Y-91766804D01*
X145914482Y-91759190D01*
X145912647Y-91759321D01*
X145906037Y-91763569D01*
X145520424Y-92149181D01*
X145512811Y-92163124D01*
X145205307Y-92163124D01*
X145208537Y-92117960D01*
X145237498Y-92072897D01*
X145328008Y-91982387D01*
X145723197Y-91587199D01*
X145730811Y-91573255D01*
X145730680Y-91571422D01*
X145726429Y-91564807D01*
X145619389Y-91457767D01*
X145614312Y-91453211D01*
X145577210Y-91423381D01*
X145563863Y-91415162D01*
X145454326Y-91365357D01*
X145437266Y-91360368D01*
X145319213Y-91343463D01*
X145301448Y-91343463D01*
X145183395Y-91360368D01*
X145166335Y-91365358D01*
X145056797Y-91415162D01*
X145043450Y-91423381D01*
X145006348Y-91453211D01*
X145001271Y-91457767D01*
X144898595Y-91560443D01*
X144836283Y-91594469D01*
X144765468Y-91589404D01*
X144708632Y-91546857D01*
X144683821Y-91480337D01*
X144683500Y-91471348D01*
X144683500Y-90782839D01*
X144704736Y-90712836D01*
X144724972Y-90682551D01*
X144724974Y-90682547D01*
X144731867Y-90672231D01*
X144743500Y-90613748D01*
X144743500Y-90005500D01*
X144763502Y-89937379D01*
X144817158Y-89890886D01*
X144869500Y-89879500D01*
X145477748Y-89879500D01*
X145483816Y-89878293D01*
X145524061Y-89870288D01*
X145524062Y-89870288D01*
X145536231Y-89867867D01*
X145602552Y-89823552D01*
X145646867Y-89757231D01*
X145650471Y-89739115D01*
X145654134Y-89720697D01*
X145687041Y-89657787D01*
X145748736Y-89622655D01*
X145819631Y-89626455D01*
X145847605Y-89640440D01*
X146288272Y-89934218D01*
X146341329Y-89959249D01*
X146411319Y-89980411D01*
X146415900Y-89981087D01*
X146415902Y-89981087D01*
X146464771Y-89988294D01*
X146464777Y-89988294D01*
X146469358Y-89988970D01*
X148156889Y-89987654D01*
X148225025Y-90007603D01*
X148266106Y-90050654D01*
X148275806Y-90067455D01*
X148284251Y-90074541D01*
X148304682Y-90091685D01*
X148312785Y-90099111D01*
X148411079Y-90197405D01*
X148445105Y-90259717D01*
X148440040Y-90330532D01*
X148397493Y-90387368D01*
X148330973Y-90412179D01*
X148321984Y-90412500D01*
X148184252Y-90412500D01*
X148178184Y-90413707D01*
X148137939Y-90421712D01*
X148137938Y-90421712D01*
X148125769Y-90424133D01*
X148059448Y-90468448D01*
X148015133Y-90534769D01*
X148012712Y-90546938D01*
X148012712Y-90546939D01*
X148006970Y-90575809D01*
X148003500Y-90593252D01*
X148003500Y-91692748D01*
X148004707Y-91698816D01*
X148012008Y-91735519D01*
X148015133Y-91751231D01*
X148059448Y-91817552D01*
X148069761Y-91824443D01*
X148069765Y-91824447D01*
X148072501Y-91826275D01*
X148077121Y-91831803D01*
X148078540Y-91833222D01*
X148078413Y-91833349D01*
X148118029Y-91880751D01*
X148128500Y-91931040D01*
X148128500Y-92204433D01*
X148131564Y-92213864D01*
X148131565Y-92213868D01*
X148135297Y-92225353D01*
X148139913Y-92244578D01*
X148143354Y-92266304D01*
X148147855Y-92275137D01*
X148147856Y-92275141D01*
X148153341Y-92285906D01*
X148160905Y-92304166D01*
X148167704Y-92325090D01*
X148180639Y-92342893D01*
X148190965Y-92359745D01*
X148200950Y-92379342D01*
X148223513Y-92401905D01*
X148223516Y-92401909D01*
X148266595Y-92444988D01*
X148300621Y-92507300D01*
X148303500Y-92534083D01*
X148303500Y-92629659D01*
X148283498Y-92697780D01*
X148242028Y-92735299D01*
X148242640Y-92736141D01*
X148234806Y-92741833D01*
X148234704Y-92741925D01*
X148225780Y-92746472D01*
X148130472Y-92841780D01*
X148069281Y-92961874D01*
X148067731Y-92971663D01*
X148067730Y-92971665D01*
X148065826Y-92983689D01*
X148053500Y-93061512D01*
X148053500Y-93628488D01*
X148069281Y-93728126D01*
X148130472Y-93848220D01*
X148225780Y-93943528D01*
X148234704Y-93948075D01*
X148234787Y-93948153D01*
X148242640Y-93953859D01*
X148241903Y-93954874D01*
X148286318Y-93996822D01*
X148303500Y-94060341D01*
X148303500Y-94157433D01*
X148306564Y-94166864D01*
X148306565Y-94166868D01*
X148310297Y-94178353D01*
X148314913Y-94197578D01*
X148318354Y-94219304D01*
X148322855Y-94228137D01*
X148322856Y-94228141D01*
X148328341Y-94238906D01*
X148335905Y-94257166D01*
X148342704Y-94278090D01*
X148355639Y-94295893D01*
X148365965Y-94312745D01*
X148375950Y-94332342D01*
X148398503Y-94354895D01*
X148398516Y-94354909D01*
X148820750Y-94777142D01*
X148910458Y-94866850D01*
X148919294Y-94871352D01*
X148919295Y-94871353D01*
X148930059Y-94876838D01*
X148946916Y-94887168D01*
X148964710Y-94900096D01*
X148985632Y-94906894D01*
X149003893Y-94914458D01*
X149014661Y-94919945D01*
X149014665Y-94919946D01*
X149023496Y-94924446D01*
X149033285Y-94925997D01*
X149033293Y-94925999D01*
X149045227Y-94927889D01*
X149064447Y-94932503D01*
X149075933Y-94936235D01*
X149075940Y-94936236D01*
X149085367Y-94939299D01*
X149117277Y-94939299D01*
X149117281Y-94939300D01*
X151237760Y-94939300D01*
X151305881Y-94959302D01*
X151352374Y-95012958D01*
X151362478Y-95083232D01*
X151332984Y-95147812D01*
X151298269Y-95175820D01*
X151278294Y-95186756D01*
X151177133Y-95262572D01*
X151164572Y-95275133D01*
X151088754Y-95376296D01*
X151080222Y-95391882D01*
X151035467Y-95511265D01*
X151031842Y-95526510D01*
X151026369Y-95576892D01*
X151026000Y-95583706D01*
X151026000Y-97982885D01*
X151030475Y-97998124D01*
X151031865Y-97999329D01*
X151039548Y-98001000D01*
X152515884Y-98001000D01*
X152531123Y-97996525D01*
X152532328Y-97995135D01*
X152533999Y-97987452D01*
X152533999Y-95583708D01*
X152533630Y-95576890D01*
X152528159Y-95526518D01*
X152524530Y-95511259D01*
X152479778Y-95391882D01*
X152471246Y-95376296D01*
X152395428Y-95275133D01*
X152382867Y-95262572D01*
X152281706Y-95186756D01*
X152261731Y-95175820D01*
X152211585Y-95125562D01*
X152196571Y-95056171D01*
X152221456Y-94989678D01*
X152278339Y-94947195D01*
X152322240Y-94939300D01*
X152994717Y-94939300D01*
X153062838Y-94959302D01*
X153083812Y-94976205D01*
X153222618Y-95115011D01*
X153256644Y-95177323D01*
X153251579Y-95248138D01*
X153219354Y-95290863D01*
X153222085Y-95293594D01*
X153215421Y-95300258D01*
X153207850Y-95305850D01*
X153202258Y-95313421D01*
X153132959Y-95407243D01*
X153132958Y-95407246D01*
X153127366Y-95414816D01*
X153082481Y-95542631D01*
X153079500Y-95574166D01*
X153079500Y-100681834D01*
X153082481Y-100713369D01*
X153127366Y-100841184D01*
X153132958Y-100848754D01*
X153132959Y-100848757D01*
X153144305Y-100864118D01*
X153207850Y-100950150D01*
X153215421Y-100955742D01*
X153309243Y-101025041D01*
X153309246Y-101025042D01*
X153316816Y-101030634D01*
X153444631Y-101075519D01*
X153452277Y-101076242D01*
X153452278Y-101076242D01*
X153458248Y-101076806D01*
X153476166Y-101078500D01*
X154083834Y-101078500D01*
X154101752Y-101076806D01*
X154107722Y-101076242D01*
X154107723Y-101076242D01*
X154115369Y-101075519D01*
X154243184Y-101030634D01*
X154250754Y-101025042D01*
X154250757Y-101025041D01*
X154344579Y-100955742D01*
X154352150Y-100950150D01*
X154415695Y-100864118D01*
X154427041Y-100848757D01*
X154427042Y-100848754D01*
X154432634Y-100841184D01*
X154477519Y-100713369D01*
X154480500Y-100681834D01*
X154480500Y-95574166D01*
X154477519Y-95542631D01*
X154432634Y-95414816D01*
X154427042Y-95407246D01*
X154427041Y-95407243D01*
X154357742Y-95313421D01*
X154352150Y-95305850D01*
X154243184Y-95225366D01*
X154243337Y-95225159D01*
X154196699Y-95179706D01*
X154180500Y-95117903D01*
X154180500Y-95042567D01*
X154177436Y-95033136D01*
X154177435Y-95033132D01*
X154173703Y-95021647D01*
X154169087Y-95002422D01*
X154167197Y-94990488D01*
X154167197Y-94990487D01*
X154165646Y-94980696D01*
X154161145Y-94971863D01*
X154161144Y-94971859D01*
X154155659Y-94961094D01*
X154148093Y-94942830D01*
X154145950Y-94936235D01*
X154141296Y-94921910D01*
X154128361Y-94904107D01*
X154118035Y-94887255D01*
X154112554Y-94876498D01*
X154108050Y-94867658D01*
X154085487Y-94845095D01*
X154085484Y-94845091D01*
X153473709Y-94233316D01*
X153473705Y-94233313D01*
X153451142Y-94210750D01*
X153431546Y-94200765D01*
X153414693Y-94190439D01*
X153396890Y-94177504D01*
X153375966Y-94170705D01*
X153357706Y-94163141D01*
X153346941Y-94157656D01*
X153346937Y-94157655D01*
X153338104Y-94153154D01*
X153328313Y-94151603D01*
X153328312Y-94151603D01*
X153316378Y-94149713D01*
X153297153Y-94145097D01*
X153285668Y-94141365D01*
X153285664Y-94141364D01*
X153276233Y-94138300D01*
X153053500Y-94138300D01*
X152985379Y-94118298D01*
X152938886Y-94064642D01*
X152927500Y-94012300D01*
X152927500Y-93816759D01*
X152947502Y-93748638D01*
X152996297Y-93704492D01*
X153031510Y-93686550D01*
X153031509Y-93686550D01*
X153040342Y-93682050D01*
X153130050Y-93592342D01*
X153187646Y-93479304D01*
X153189197Y-93469512D01*
X153192262Y-93460079D01*
X153196081Y-93461320D01*
X153218143Y-93414845D01*
X153278430Y-93377349D01*
X153349419Y-93378399D01*
X153408658Y-93417767D01*
X153411296Y-93420911D01*
X153416806Y-93430455D01*
X153425247Y-93437538D01*
X153425248Y-93437539D01*
X153445675Y-93454679D01*
X153453780Y-93462106D01*
X153806901Y-93815228D01*
X153814327Y-93823331D01*
X153838545Y-93852194D01*
X153848088Y-93857704D01*
X153848092Y-93857707D01*
X153871179Y-93871036D01*
X153880448Y-93876940D01*
X153911316Y-93898554D01*
X153921964Y-93901407D01*
X153925135Y-93902886D01*
X153928411Y-93904078D01*
X153937955Y-93909588D01*
X153975076Y-93916134D01*
X153985783Y-93918508D01*
X154022193Y-93928263D01*
X154033170Y-93927303D01*
X154033173Y-93927303D01*
X154039720Y-93926730D01*
X154109325Y-93940717D01*
X154160318Y-93990116D01*
X154164347Y-93999262D01*
X154164354Y-93999304D01*
X154221950Y-94112342D01*
X154311658Y-94202050D01*
X154424696Y-94259646D01*
X154434485Y-94261196D01*
X154434487Y-94261197D01*
X154461849Y-94265530D01*
X154518481Y-94274500D01*
X154749953Y-94274500D01*
X154981518Y-94274499D01*
X154986412Y-94273724D01*
X155065506Y-94261198D01*
X155065508Y-94261197D01*
X155075304Y-94259646D01*
X155188342Y-94202050D01*
X155278050Y-94112342D01*
X155335646Y-93999304D01*
X155339063Y-93977733D01*
X155346520Y-93930646D01*
X155350500Y-93905519D01*
X155350499Y-93292482D01*
X155347333Y-93272493D01*
X155337198Y-93208493D01*
X155337197Y-93208490D01*
X155335646Y-93198696D01*
X155334464Y-93196376D01*
X155332552Y-93129469D01*
X155369214Y-93068671D01*
X155432926Y-93037346D01*
X155454413Y-93035500D01*
X155695586Y-93035500D01*
X155763707Y-93055502D01*
X155810200Y-93109158D01*
X155820304Y-93179432D01*
X155817059Y-93193388D01*
X155814354Y-93198696D01*
X155799500Y-93292481D01*
X155799501Y-93905518D01*
X155800276Y-93910409D01*
X155800276Y-93910412D01*
X155809205Y-93966789D01*
X155814354Y-93999304D01*
X155818855Y-94008137D01*
X155818857Y-94008142D01*
X155824585Y-94019384D01*
X155871950Y-94112342D01*
X155961658Y-94202050D01*
X156074696Y-94259646D01*
X156084485Y-94261196D01*
X156084487Y-94261197D01*
X156111849Y-94265530D01*
X156168481Y-94274500D01*
X156399953Y-94274500D01*
X156631518Y-94274499D01*
X156636412Y-94273724D01*
X156715506Y-94261198D01*
X156715508Y-94261197D01*
X156725304Y-94259646D01*
X156838342Y-94202050D01*
X156928050Y-94112342D01*
X156985646Y-93999304D01*
X156989063Y-93977733D01*
X156996520Y-93930646D01*
X157000500Y-93905519D01*
X157000499Y-93292482D01*
X156997333Y-93272493D01*
X156987198Y-93208494D01*
X156987197Y-93208490D01*
X156985646Y-93198696D01*
X156975831Y-93179432D01*
X156950373Y-93129469D01*
X156928050Y-93085658D01*
X156838342Y-92995950D01*
X156758631Y-92955335D01*
X156707016Y-92906586D01*
X156702309Y-92897596D01*
X156699554Y-92887316D01*
X156677945Y-92856456D01*
X156672039Y-92847185D01*
X156658707Y-92824094D01*
X156653194Y-92814545D01*
X156624317Y-92790315D01*
X156616215Y-92782889D01*
X156593061Y-92759735D01*
X156559035Y-92697423D01*
X156564100Y-92626608D01*
X156606647Y-92569772D01*
X156668546Y-92545377D01*
X156675953Y-92544572D01*
X156691211Y-92540944D01*
X156802207Y-92499335D01*
X156817792Y-92490803D01*
X156911792Y-92420353D01*
X156924353Y-92407792D01*
X156994803Y-92313792D01*
X157003335Y-92298207D01*
X157044946Y-92187206D01*
X157048572Y-92171959D01*
X157053631Y-92125391D01*
X157054000Y-92118579D01*
X157054000Y-91966115D01*
X157049525Y-91950876D01*
X157048135Y-91949671D01*
X157040452Y-91948000D01*
X156361500Y-91948000D01*
X156293379Y-91927998D01*
X156246886Y-91874342D01*
X156235500Y-91822000D01*
X156235500Y-91675885D01*
X156489500Y-91675885D01*
X156493975Y-91691124D01*
X156495365Y-91692329D01*
X156503048Y-91694000D01*
X157035884Y-91694000D01*
X157051123Y-91689525D01*
X157052328Y-91688135D01*
X157053999Y-91680452D01*
X157053999Y-91523424D01*
X157053630Y-91516606D01*
X157048573Y-91470048D01*
X157044944Y-91454789D01*
X157003335Y-91343793D01*
X156994803Y-91328208D01*
X156924353Y-91234208D01*
X156911792Y-91221647D01*
X156817792Y-91151197D01*
X156802207Y-91142665D01*
X156691206Y-91101054D01*
X156675959Y-91097428D01*
X156629391Y-91092369D01*
X156622579Y-91092000D01*
X156507615Y-91092000D01*
X156492376Y-91096475D01*
X156491171Y-91097865D01*
X156489500Y-91105548D01*
X156489500Y-91675885D01*
X156235500Y-91675885D01*
X156235500Y-91110116D01*
X156231025Y-91094877D01*
X156229635Y-91093672D01*
X156221952Y-91092001D01*
X156102424Y-91092001D01*
X156095606Y-91092370D01*
X156049048Y-91097427D01*
X156033789Y-91101056D01*
X155922793Y-91142665D01*
X155907208Y-91151197D01*
X155813208Y-91221647D01*
X155800647Y-91234208D01*
X155730197Y-91328208D01*
X155721665Y-91343793D01*
X155680054Y-91454794D01*
X155676428Y-91470042D01*
X155672350Y-91507580D01*
X155645108Y-91573142D01*
X155586745Y-91613568D01*
X155515791Y-91616023D01*
X155454773Y-91579728D01*
X155422638Y-91513683D01*
X155411502Y-91443372D01*
X155411502Y-91443371D01*
X155409951Y-91433580D01*
X155349658Y-91315249D01*
X155255751Y-91221342D01*
X155137420Y-91161049D01*
X155039246Y-91145500D01*
X154535754Y-91145500D01*
X154437580Y-91161049D01*
X154319249Y-91221342D01*
X154225342Y-91315249D01*
X154222158Y-91321498D01*
X154167212Y-91363866D01*
X154096476Y-91369941D01*
X154033685Y-91336809D01*
X153998774Y-91274988D01*
X153995500Y-91246451D01*
X153995500Y-90697710D01*
X153995980Y-90686728D01*
X153998303Y-90660180D01*
X153998303Y-90660178D01*
X153999264Y-90649193D01*
X153989508Y-90612785D01*
X153987130Y-90602058D01*
X153984507Y-90587184D01*
X153980588Y-90564955D01*
X153975077Y-90555410D01*
X153973885Y-90552134D01*
X153972408Y-90548966D01*
X153969554Y-90538316D01*
X153947945Y-90507456D01*
X153942039Y-90498185D01*
X153928707Y-90475094D01*
X153923194Y-90465545D01*
X153894317Y-90441315D01*
X153886215Y-90433889D01*
X153279111Y-89826785D01*
X153271684Y-89818681D01*
X153254541Y-89798251D01*
X153254542Y-89798251D01*
X153247455Y-89789806D01*
X153237906Y-89784293D01*
X153214815Y-89770961D01*
X153205544Y-89765055D01*
X153183715Y-89749770D01*
X153174684Y-89743446D01*
X153164034Y-89740592D01*
X153160866Y-89739115D01*
X153157590Y-89737923D01*
X153148045Y-89732412D01*
X153114301Y-89726462D01*
X153110942Y-89725870D01*
X153100215Y-89723492D01*
X153063807Y-89713736D01*
X153052822Y-89714697D01*
X153052820Y-89714697D01*
X153026272Y-89717020D01*
X153015290Y-89717500D01*
X151059948Y-89717500D01*
X150991827Y-89697498D01*
X150945334Y-89643842D01*
X150935230Y-89573568D01*
X150940307Y-89555062D01*
X150942867Y-89551231D01*
X150954500Y-89492748D01*
X150954500Y-88393252D01*
X150942867Y-88334769D01*
X150898552Y-88268448D01*
X150832231Y-88224133D01*
X150820062Y-88221712D01*
X150820061Y-88221712D01*
X150779816Y-88213707D01*
X150773748Y-88212500D01*
X150084252Y-88212500D01*
X150078184Y-88213707D01*
X150037939Y-88221712D01*
X150037938Y-88221712D01*
X150025769Y-88224133D01*
X149959448Y-88268448D01*
X149915133Y-88334769D01*
X149903500Y-88393252D01*
X149903500Y-89492748D01*
X149915133Y-89551231D01*
X149915350Y-89551556D01*
X149922050Y-89613873D01*
X149890270Y-89677360D01*
X149829211Y-89713586D01*
X149798052Y-89717500D01*
X149550982Y-89717500D01*
X149482861Y-89697498D01*
X149436368Y-89643842D01*
X149424982Y-89591499D01*
X149424983Y-89573568D01*
X149424985Y-89174762D01*
X149424991Y-87863240D01*
X149424993Y-87489060D01*
X149444996Y-87420939D01*
X149498652Y-87374447D01*
X149568926Y-87364344D01*
X149633506Y-87393837D01*
X149651819Y-87413496D01*
X149681431Y-87453007D01*
X149693990Y-87465566D01*
X149789425Y-87537092D01*
X149805012Y-87545625D01*
X149917689Y-87587865D01*
X149932934Y-87591490D01*
X149980259Y-87596631D01*
X149987073Y-87597000D01*
X150108885Y-87597000D01*
X150124124Y-87592525D01*
X150125329Y-87591135D01*
X150127000Y-87583452D01*
X150127000Y-87578885D01*
X150381000Y-87578885D01*
X150385475Y-87594124D01*
X150386865Y-87595329D01*
X150394548Y-87597000D01*
X150520927Y-87597000D01*
X150527741Y-87596631D01*
X150575066Y-87591490D01*
X150590311Y-87587865D01*
X150702988Y-87545625D01*
X150718575Y-87537092D01*
X150793480Y-87480953D01*
X153469707Y-87480953D01*
X153486194Y-87766878D01*
X153487019Y-87771083D01*
X153487020Y-87771091D01*
X153505099Y-87863240D01*
X153541332Y-88047920D01*
X153542719Y-88051970D01*
X153542720Y-88051975D01*
X153616836Y-88268448D01*
X153634102Y-88318878D01*
X153762787Y-88574740D01*
X153765213Y-88578269D01*
X153765216Y-88578275D01*
X153922575Y-88807233D01*
X153925006Y-88810770D01*
X154117756Y-89022600D01*
X154337472Y-89206311D01*
X154341098Y-89208586D01*
X154341100Y-89208587D01*
X154381829Y-89234136D01*
X154580088Y-89358503D01*
X154583990Y-89360265D01*
X154583994Y-89360267D01*
X154837202Y-89474595D01*
X154837206Y-89474597D01*
X154841114Y-89476361D01*
X154896435Y-89492748D01*
X155111606Y-89556485D01*
X155111611Y-89556486D01*
X155115719Y-89557703D01*
X155119953Y-89558351D01*
X155119958Y-89558352D01*
X155356189Y-89594500D01*
X155398824Y-89601024D01*
X155544589Y-89603314D01*
X155680898Y-89605456D01*
X155680904Y-89605456D01*
X155685189Y-89605523D01*
X155689441Y-89605008D01*
X155689449Y-89605008D01*
X155909221Y-89578411D01*
X155969514Y-89571115D01*
X155973662Y-89570027D01*
X155973666Y-89570026D01*
X156242388Y-89499528D01*
X156246539Y-89498439D01*
X156250500Y-89496799D01*
X156250504Y-89496797D01*
X156451002Y-89413748D01*
X156511138Y-89388839D01*
X156560034Y-89360267D01*
X156754717Y-89246503D01*
X156754718Y-89246503D01*
X156758415Y-89244342D01*
X156983793Y-89067623D01*
X157030491Y-89019435D01*
X157180119Y-88865030D01*
X157183102Y-88861952D01*
X157185635Y-88858504D01*
X157185639Y-88858499D01*
X157350117Y-88634589D01*
X157352655Y-88631134D01*
X157381355Y-88578275D01*
X157487263Y-88383217D01*
X157487264Y-88383215D01*
X157489313Y-88379441D01*
X157590548Y-88111530D01*
X157633942Y-87922064D01*
X157653530Y-87836538D01*
X157653531Y-87836533D01*
X157654487Y-87832358D01*
X157679946Y-87547092D01*
X157680408Y-87503000D01*
X157674145Y-87411135D01*
X157661220Y-87221540D01*
X157661219Y-87221534D01*
X157660928Y-87217263D01*
X157650466Y-87166741D01*
X157603719Y-86941011D01*
X157602850Y-86936814D01*
X157507248Y-86666842D01*
X157375891Y-86412342D01*
X157373428Y-86408837D01*
X157213673Y-86181529D01*
X157213668Y-86181523D01*
X157211209Y-86178024D01*
X157083078Y-86040138D01*
X157019172Y-85971367D01*
X157019169Y-85971364D01*
X157016251Y-85968224D01*
X157012935Y-85965510D01*
X157012932Y-85965507D01*
X156797941Y-85789539D01*
X156794623Y-85786823D01*
X156550427Y-85637180D01*
X156532419Y-85629275D01*
X156292110Y-85523786D01*
X156292106Y-85523785D01*
X156288182Y-85522062D01*
X156012739Y-85443600D01*
X155802881Y-85413733D01*
X155733448Y-85403851D01*
X155733446Y-85403851D01*
X155729196Y-85403246D01*
X155577333Y-85402451D01*
X155447086Y-85401769D01*
X155447080Y-85401769D01*
X155442800Y-85401747D01*
X155438556Y-85402306D01*
X155438552Y-85402306D01*
X155345398Y-85414570D01*
X155158851Y-85439129D01*
X155154711Y-85440262D01*
X155154709Y-85440262D01*
X155138209Y-85444776D01*
X154882602Y-85514702D01*
X154878654Y-85516386D01*
X154623117Y-85625382D01*
X154623113Y-85625384D01*
X154619165Y-85627068D01*
X154373415Y-85774146D01*
X154149900Y-85953215D01*
X154050648Y-86057805D01*
X153956406Y-86157115D01*
X153952755Y-86160962D01*
X153950256Y-86164440D01*
X153950255Y-86164441D01*
X153927675Y-86195865D01*
X153785629Y-86393543D01*
X153651614Y-86646653D01*
X153617088Y-86741000D01*
X153555755Y-86908602D01*
X153553190Y-86915610D01*
X153492178Y-87195436D01*
X153469707Y-87480953D01*
X150793480Y-87480953D01*
X150814010Y-87465566D01*
X150826566Y-87453010D01*
X150898092Y-87357575D01*
X150906625Y-87341988D01*
X150948865Y-87229311D01*
X150952490Y-87214066D01*
X150957631Y-87166741D01*
X150958000Y-87159927D01*
X150958000Y-87013115D01*
X150953525Y-86997876D01*
X150952135Y-86996671D01*
X150944452Y-86995000D01*
X150399115Y-86995000D01*
X150383876Y-86999475D01*
X150382671Y-87000865D01*
X150381000Y-87008548D01*
X150381000Y-87578885D01*
X150127000Y-87578885D01*
X150127000Y-86722885D01*
X150381000Y-86722885D01*
X150385475Y-86738124D01*
X150386865Y-86739329D01*
X150394548Y-86741000D01*
X150939885Y-86741000D01*
X150955124Y-86736525D01*
X150956329Y-86735135D01*
X150958000Y-86727452D01*
X150958000Y-86576073D01*
X150957631Y-86569259D01*
X150952490Y-86521934D01*
X150948865Y-86506689D01*
X150906625Y-86394012D01*
X150898092Y-86378425D01*
X150826566Y-86282990D01*
X150814010Y-86270434D01*
X150718575Y-86198908D01*
X150702988Y-86190375D01*
X150590311Y-86148135D01*
X150575066Y-86144510D01*
X150527741Y-86139369D01*
X150520927Y-86139000D01*
X150399115Y-86139000D01*
X150383876Y-86143475D01*
X150382671Y-86144865D01*
X150381000Y-86152548D01*
X150381000Y-86722885D01*
X150127000Y-86722885D01*
X150127000Y-86157115D01*
X150122525Y-86141876D01*
X150121135Y-86140671D01*
X150113452Y-86139000D01*
X149987073Y-86139000D01*
X149980259Y-86139369D01*
X149932934Y-86144510D01*
X149917689Y-86148135D01*
X149805012Y-86190375D01*
X149789425Y-86198908D01*
X149693990Y-86270434D01*
X149681431Y-86282993D01*
X149639142Y-86339419D01*
X149582283Y-86381934D01*
X149511464Y-86386960D01*
X149449171Y-86352900D01*
X149415224Y-86290767D01*
X149409066Y-86262601D01*
X149409065Y-86262598D01*
X149408888Y-86261787D01*
X149406401Y-86251682D01*
X149402020Y-86243500D01*
X149367719Y-86179452D01*
X149364380Y-86173217D01*
X149317776Y-86119659D01*
X149316445Y-86118306D01*
X149316430Y-86118290D01*
X149306940Y-86108645D01*
X149306938Y-86108643D01*
X149300620Y-86102222D01*
X149222848Y-86058931D01*
X149211065Y-86055498D01*
X149159012Y-86040330D01*
X149159005Y-86040329D01*
X149154686Y-86039070D01*
X149098321Y-86031085D01*
X149093827Y-86031094D01*
X149093822Y-86031094D01*
X148178104Y-86033000D01*
X146254873Y-86033000D01*
X146250692Y-86033564D01*
X146250686Y-86033564D01*
X146214530Y-86038438D01*
X146201918Y-86040138D01*
X146166813Y-86049777D01*
X146139151Y-86057372D01*
X146139142Y-86057375D01*
X146137575Y-86057805D01*
X146136026Y-86058319D01*
X146125982Y-86061651D01*
X146125980Y-86061652D01*
X146117694Y-86064401D01*
X146044090Y-86114450D01*
X146039273Y-86119629D01*
X146039269Y-86119632D01*
X146008652Y-86152548D01*
X145995735Y-86166434D01*
X145993172Y-86170129D01*
X145969452Y-86204325D01*
X145963290Y-86213208D01*
X145961278Y-86217232D01*
X145525469Y-87088849D01*
X145477114Y-87140833D01*
X145412771Y-87158500D01*
X144869500Y-87158500D01*
X144801379Y-87138498D01*
X144754886Y-87084842D01*
X144743500Y-87032500D01*
X144743500Y-86424252D01*
X144737392Y-86393543D01*
X144734288Y-86377939D01*
X144734288Y-86377938D01*
X144731867Y-86365769D01*
X144687552Y-86299448D01*
X144644130Y-86270434D01*
X144631547Y-86262026D01*
X144621231Y-86255133D01*
X144609062Y-86252712D01*
X144609061Y-86252712D01*
X144568816Y-86244707D01*
X144562748Y-86243500D01*
X144153252Y-86243500D01*
X144147187Y-86244706D01*
X144147181Y-86244707D01*
X144129604Y-86248204D01*
X144124968Y-86249126D01*
X144054255Y-86242800D01*
X144030383Y-86230313D01*
X144002425Y-86211632D01*
X143979934Y-86202316D01*
X143924085Y-86191207D01*
X143911830Y-86190000D01*
X143853115Y-86190000D01*
X143837876Y-86194475D01*
X143836671Y-86195865D01*
X143835000Y-86203548D01*
X143835000Y-86770000D01*
X143814998Y-86838121D01*
X143761342Y-86884614D01*
X143709000Y-86896000D01*
X143057000Y-86896000D01*
X142988879Y-86875998D01*
X142942386Y-86822342D01*
X142931000Y-86770000D01*
X142931000Y-86623885D01*
X143185000Y-86623885D01*
X143189475Y-86639124D01*
X143190865Y-86640329D01*
X143198548Y-86642000D01*
X143562885Y-86642000D01*
X143578124Y-86637525D01*
X143579329Y-86636135D01*
X143581000Y-86628452D01*
X143581000Y-86208116D01*
X143576525Y-86192877D01*
X143575135Y-86191672D01*
X143567452Y-86190001D01*
X143504172Y-86190001D01*
X143491912Y-86191209D01*
X143436067Y-86202316D01*
X143431216Y-86204325D01*
X143360626Y-86211912D01*
X143334786Y-86204325D01*
X143329936Y-86202316D01*
X143274085Y-86191207D01*
X143261830Y-86190000D01*
X143203115Y-86190000D01*
X143187876Y-86194475D01*
X143186671Y-86195865D01*
X143185000Y-86203548D01*
X143185000Y-86623885D01*
X142931000Y-86623885D01*
X142931000Y-86208116D01*
X142926525Y-86192877D01*
X142925135Y-86191672D01*
X142917452Y-86190001D01*
X142854172Y-86190001D01*
X142841912Y-86191209D01*
X142786069Y-86202315D01*
X142763573Y-86211633D01*
X142735617Y-86230313D01*
X142667864Y-86251528D01*
X142641032Y-86249126D01*
X142636396Y-86248204D01*
X142618819Y-86244707D01*
X142618813Y-86244706D01*
X142612748Y-86243500D01*
X142203252Y-86243500D01*
X142197184Y-86244707D01*
X142156939Y-86252712D01*
X142156938Y-86252712D01*
X142144769Y-86255133D01*
X142134453Y-86262026D01*
X142121870Y-86270434D01*
X142078448Y-86299448D01*
X142034133Y-86365769D01*
X142031712Y-86377938D01*
X142031712Y-86377939D01*
X142028608Y-86393543D01*
X142022500Y-86424252D01*
X142022500Y-86979000D01*
X142002498Y-87047121D01*
X141948842Y-87093614D01*
X141896500Y-87105000D01*
X141778115Y-87105000D01*
X141762876Y-87109475D01*
X141761671Y-87110865D01*
X141760000Y-87118548D01*
X141760000Y-88845000D01*
X141739998Y-88913121D01*
X141686342Y-88959614D01*
X141634000Y-88971000D01*
X141072116Y-88971000D01*
X141056877Y-88975475D01*
X141055672Y-88976865D01*
X141054001Y-88984548D01*
X141054001Y-89047828D01*
X141055209Y-89060088D01*
X141066315Y-89115931D01*
X141075633Y-89138427D01*
X141094313Y-89166383D01*
X141115528Y-89234136D01*
X141113126Y-89260969D01*
X141108707Y-89283181D01*
X141108706Y-89283187D01*
X141107500Y-89289252D01*
X141107500Y-89698748D01*
X141108707Y-89704816D01*
X141115530Y-89739115D01*
X141119133Y-89757231D01*
X141163448Y-89823552D01*
X141219811Y-89861213D01*
X141229769Y-89867867D01*
X141229173Y-89868758D01*
X141274859Y-89905577D01*
X141297278Y-89972941D01*
X141279718Y-90041732D01*
X141260453Y-90066529D01*
X139985239Y-91341743D01*
X139977135Y-91349170D01*
X139948260Y-91373399D01*
X139942748Y-91382946D01*
X139939563Y-91386742D01*
X139932136Y-91394846D01*
X138118785Y-93208197D01*
X138110681Y-93215624D01*
X138081806Y-93239853D01*
X138076293Y-93249402D01*
X138062961Y-93272493D01*
X138057055Y-93281764D01*
X138035446Y-93312624D01*
X138032592Y-93323274D01*
X138031115Y-93326442D01*
X138029923Y-93329718D01*
X138024412Y-93339263D01*
X138018462Y-93373007D01*
X138017870Y-93376366D01*
X138015492Y-93387093D01*
X138005736Y-93423501D01*
X138006697Y-93434486D01*
X138006697Y-93434488D01*
X138009020Y-93461036D01*
X138009500Y-93472018D01*
X138009500Y-95087719D01*
X137989498Y-95155840D01*
X137935842Y-95202333D01*
X137925252Y-95206601D01*
X137871816Y-95225366D01*
X137864246Y-95230958D01*
X137864243Y-95230959D01*
X137864242Y-95230960D01*
X137762850Y-95305850D01*
X137757258Y-95313421D01*
X137687959Y-95407243D01*
X137687958Y-95407246D01*
X137682366Y-95414816D01*
X137637481Y-95542631D01*
X137634500Y-95574166D01*
X137634500Y-100681834D01*
X136935500Y-100681834D01*
X136935500Y-99074166D01*
X136932519Y-99042631D01*
X136887634Y-98914816D01*
X136882042Y-98907246D01*
X136882041Y-98907243D01*
X136812742Y-98813421D01*
X136807150Y-98805850D01*
X136790206Y-98793335D01*
X136705757Y-98730959D01*
X136705754Y-98730958D01*
X136698184Y-98725366D01*
X136570369Y-98680481D01*
X136562723Y-98679758D01*
X136562722Y-98679758D01*
X136556752Y-98679194D01*
X136538834Y-98677500D01*
X135331166Y-98677500D01*
X135313248Y-98679194D01*
X135307278Y-98679758D01*
X135307277Y-98679758D01*
X135299631Y-98680481D01*
X135171816Y-98725366D01*
X135164246Y-98730958D01*
X135164243Y-98730959D01*
X135079794Y-98793335D01*
X135062850Y-98805850D01*
X135057258Y-98813421D01*
X134987959Y-98907243D01*
X134987958Y-98907246D01*
X134982366Y-98914816D01*
X134937481Y-99042631D01*
X134934500Y-99074166D01*
X134934500Y-101681834D01*
X134112000Y-101681834D01*
X134112000Y-87536308D01*
X134112187Y-87534887D01*
X134112187Y-87519024D01*
X134116480Y-87503000D01*
X134113583Y-87492188D01*
X134114385Y-87489454D01*
X134112825Y-87489360D01*
X134113334Y-87480953D01*
X134419707Y-87480953D01*
X134436194Y-87766878D01*
X134437019Y-87771083D01*
X134437020Y-87771091D01*
X134455099Y-87863240D01*
X134491332Y-88047920D01*
X134492719Y-88051970D01*
X134492720Y-88051975D01*
X134566836Y-88268448D01*
X134584102Y-88318878D01*
X134712787Y-88574740D01*
X134715213Y-88578269D01*
X134715216Y-88578275D01*
X134872575Y-88807233D01*
X134875006Y-88810770D01*
X135067756Y-89022600D01*
X135287472Y-89206311D01*
X135291098Y-89208586D01*
X135291100Y-89208587D01*
X135331829Y-89234136D01*
X135530088Y-89358503D01*
X135533990Y-89360265D01*
X135533994Y-89360267D01*
X135787202Y-89474595D01*
X135787206Y-89474597D01*
X135791114Y-89476361D01*
X135846435Y-89492748D01*
X136061606Y-89556485D01*
X136061611Y-89556486D01*
X136065719Y-89557703D01*
X136069953Y-89558351D01*
X136069958Y-89558352D01*
X136306189Y-89594500D01*
X136348824Y-89601024D01*
X136494589Y-89603314D01*
X136630898Y-89605456D01*
X136630904Y-89605456D01*
X136635189Y-89605523D01*
X136639441Y-89605008D01*
X136639449Y-89605008D01*
X136859221Y-89578411D01*
X136919514Y-89571115D01*
X136923662Y-89570027D01*
X136923666Y-89570026D01*
X137192388Y-89499528D01*
X137196539Y-89498439D01*
X137200500Y-89496799D01*
X137200504Y-89496797D01*
X137401002Y-89413748D01*
X137461138Y-89388839D01*
X137510034Y-89360267D01*
X137704717Y-89246503D01*
X137704718Y-89246503D01*
X137708415Y-89244342D01*
X137933793Y-89067623D01*
X137980491Y-89019435D01*
X138130119Y-88865030D01*
X138133102Y-88861952D01*
X138135635Y-88858504D01*
X138135639Y-88858499D01*
X138252887Y-88698885D01*
X141054000Y-88698885D01*
X141058475Y-88714124D01*
X141059865Y-88715329D01*
X141067548Y-88717000D01*
X141487885Y-88717000D01*
X141503124Y-88712525D01*
X141504329Y-88711135D01*
X141506000Y-88703452D01*
X141506000Y-88339115D01*
X141501525Y-88323876D01*
X141500135Y-88322671D01*
X141492452Y-88321000D01*
X141072116Y-88321000D01*
X141056877Y-88325475D01*
X141055672Y-88326865D01*
X141054001Y-88334548D01*
X141054001Y-88397828D01*
X141055209Y-88410088D01*
X141066316Y-88465933D01*
X141068325Y-88470784D01*
X141075912Y-88541374D01*
X141068325Y-88567214D01*
X141066316Y-88572064D01*
X141055207Y-88627915D01*
X141054000Y-88640170D01*
X141054000Y-88698885D01*
X138252887Y-88698885D01*
X138300117Y-88634589D01*
X138302655Y-88631134D01*
X138331355Y-88578275D01*
X138437263Y-88383217D01*
X138437264Y-88383215D01*
X138439313Y-88379441D01*
X138540548Y-88111530D01*
X138554896Y-88048885D01*
X141054000Y-88048885D01*
X141058475Y-88064124D01*
X141059865Y-88065329D01*
X141067548Y-88067000D01*
X141487885Y-88067000D01*
X141503124Y-88062525D01*
X141504329Y-88061135D01*
X141506000Y-88053452D01*
X141506000Y-87689115D01*
X141501525Y-87673876D01*
X141500135Y-87672671D01*
X141492452Y-87671000D01*
X141072116Y-87671000D01*
X141056877Y-87675475D01*
X141055672Y-87676865D01*
X141054001Y-87684548D01*
X141054001Y-87747828D01*
X141055209Y-87760088D01*
X141066316Y-87815933D01*
X141068325Y-87820784D01*
X141075912Y-87891374D01*
X141068325Y-87917214D01*
X141066316Y-87922064D01*
X141055207Y-87977915D01*
X141054000Y-87990170D01*
X141054000Y-88048885D01*
X138554896Y-88048885D01*
X138583942Y-87922064D01*
X138603530Y-87836538D01*
X138603531Y-87836533D01*
X138604487Y-87832358D01*
X138629946Y-87547092D01*
X138630408Y-87503000D01*
X138624145Y-87411135D01*
X138623310Y-87398885D01*
X141054000Y-87398885D01*
X141058475Y-87414124D01*
X141059865Y-87415329D01*
X141067548Y-87417000D01*
X141487885Y-87417000D01*
X141503124Y-87412525D01*
X141504329Y-87411135D01*
X141506000Y-87403452D01*
X141506000Y-87123116D01*
X141501525Y-87107877D01*
X141500135Y-87106672D01*
X141492452Y-87105001D01*
X141289172Y-87105001D01*
X141276912Y-87106209D01*
X141221069Y-87117315D01*
X141198573Y-87126633D01*
X141135192Y-87168983D01*
X141117983Y-87186192D01*
X141075632Y-87249575D01*
X141066316Y-87272066D01*
X141055207Y-87327915D01*
X141054000Y-87340170D01*
X141054000Y-87398885D01*
X138623310Y-87398885D01*
X138611220Y-87221540D01*
X138611219Y-87221534D01*
X138610928Y-87217263D01*
X138600466Y-87166741D01*
X138553719Y-86941011D01*
X138552850Y-86936814D01*
X138457248Y-86666842D01*
X138325891Y-86412342D01*
X138323428Y-86408837D01*
X138163673Y-86181529D01*
X138163668Y-86181523D01*
X138161209Y-86178024D01*
X138033078Y-86040138D01*
X137969172Y-85971367D01*
X137969169Y-85971364D01*
X137966251Y-85968224D01*
X137962935Y-85965510D01*
X137962932Y-85965507D01*
X137747941Y-85789539D01*
X137744623Y-85786823D01*
X137500427Y-85637180D01*
X137482419Y-85629275D01*
X137242110Y-85523786D01*
X137242106Y-85523785D01*
X137238182Y-85522062D01*
X136962739Y-85443600D01*
X136752881Y-85413733D01*
X136683448Y-85403851D01*
X136683446Y-85403851D01*
X136679196Y-85403246D01*
X136527333Y-85402451D01*
X136397086Y-85401769D01*
X136397080Y-85401769D01*
X136392800Y-85401747D01*
X136388556Y-85402306D01*
X136388552Y-85402306D01*
X136295398Y-85414570D01*
X136108851Y-85439129D01*
X136104711Y-85440262D01*
X136104709Y-85440262D01*
X136088209Y-85444776D01*
X135832602Y-85514702D01*
X135828654Y-85516386D01*
X135573117Y-85625382D01*
X135573113Y-85625384D01*
X135569165Y-85627068D01*
X135323415Y-85774146D01*
X135099900Y-85953215D01*
X135000648Y-86057805D01*
X134906406Y-86157115D01*
X134902755Y-86160962D01*
X134900256Y-86164440D01*
X134900255Y-86164441D01*
X134877675Y-86195865D01*
X134735629Y-86393543D01*
X134601614Y-86646653D01*
X134567088Y-86741000D01*
X134505755Y-86908602D01*
X134503190Y-86915610D01*
X134442178Y-87195436D01*
X134419707Y-87480953D01*
X134113334Y-87480953D01*
X134129134Y-87219752D01*
X134130968Y-87204648D01*
X134180744Y-86933029D01*
X134184385Y-86918256D01*
X134240516Y-86738124D01*
X134266541Y-86654608D01*
X134271935Y-86640386D01*
X134273223Y-86637525D01*
X134385270Y-86388566D01*
X134392333Y-86375110D01*
X134535197Y-86138783D01*
X134543839Y-86126262D01*
X134556211Y-86110471D01*
X134714148Y-85908879D01*
X134724238Y-85897491D01*
X134919491Y-85702238D01*
X134930879Y-85692148D01*
X135145777Y-85523786D01*
X135148263Y-85521838D01*
X135160784Y-85513196D01*
X135397110Y-85370333D01*
X135410566Y-85363270D01*
X135662390Y-85249933D01*
X135676608Y-85244541D01*
X135940256Y-85162385D01*
X135955029Y-85158744D01*
X136226648Y-85108968D01*
X136241752Y-85107134D01*
X136511360Y-85090825D01*
X136511435Y-85092062D01*
X136513785Y-85091475D01*
X136525000Y-85094480D01*
X136541024Y-85090187D01*
X136556887Y-85090187D01*
X136558308Y-85090000D01*
X155541692Y-85090000D01*
X155543113Y-85090187D01*
G37*
%TD.AperFunction*%
%TA.AperFunction,Conductor*%
G36*
X149548121Y-91036002D02*
G01*
X149594614Y-91089658D01*
X149606000Y-91142000D01*
X149606000Y-91908884D01*
X149610475Y-91924123D01*
X149611865Y-91925328D01*
X149619548Y-91926999D01*
X149822828Y-91926999D01*
X149835088Y-91925791D01*
X149890931Y-91914685D01*
X149913426Y-91905367D01*
X149945972Y-91883621D01*
X150013725Y-91862407D01*
X150040555Y-91864808D01*
X150084252Y-91873500D01*
X150773748Y-91873500D01*
X150788272Y-91870611D01*
X150820061Y-91864288D01*
X150820062Y-91864288D01*
X150832231Y-91861867D01*
X150898552Y-91817552D01*
X150942867Y-91751231D01*
X150945993Y-91735519D01*
X150953293Y-91698816D01*
X150954500Y-91692748D01*
X150954500Y-91594500D01*
X150974502Y-91526379D01*
X151028158Y-91479886D01*
X151080500Y-91468500D01*
X151153984Y-91468500D01*
X151222105Y-91488502D01*
X151243079Y-91505405D01*
X151457889Y-91720215D01*
X151465316Y-91728319D01*
X151489545Y-91757194D01*
X151499094Y-91762707D01*
X151522185Y-91776039D01*
X151531456Y-91781945D01*
X151562316Y-91803554D01*
X151572967Y-91806408D01*
X151576140Y-91807888D01*
X151579412Y-91809079D01*
X151588955Y-91814588D01*
X151626076Y-91821134D01*
X151636783Y-91823508D01*
X151673193Y-91833263D01*
X151684168Y-91832303D01*
X151684170Y-91832303D01*
X151710731Y-91829979D01*
X151721712Y-91829500D01*
X151789241Y-91829500D01*
X151857362Y-91849502D01*
X151901508Y-91898297D01*
X151923950Y-91942342D01*
X152013658Y-92032050D01*
X152126696Y-92089646D01*
X152136485Y-92091196D01*
X152136487Y-92091197D01*
X152163849Y-92095530D01*
X152220481Y-92104500D01*
X152526938Y-92104500D01*
X152833518Y-92104499D01*
X152847195Y-92102333D01*
X152917506Y-92091198D01*
X152917508Y-92091197D01*
X152927304Y-92089646D01*
X153040342Y-92032050D01*
X153129405Y-91942987D01*
X153191717Y-91908961D01*
X153262532Y-91914026D01*
X153319368Y-91956573D01*
X153344179Y-92023093D01*
X153344500Y-92032082D01*
X153344500Y-92625918D01*
X153324498Y-92694039D01*
X153270842Y-92740532D01*
X153200568Y-92750636D01*
X153135988Y-92721142D01*
X153129405Y-92715013D01*
X153040342Y-92625950D01*
X152927304Y-92568354D01*
X152917515Y-92566804D01*
X152917513Y-92566803D01*
X152890151Y-92562470D01*
X152833519Y-92553500D01*
X152527062Y-92553500D01*
X152220482Y-92553501D01*
X152215589Y-92554276D01*
X152215588Y-92554276D01*
X152136494Y-92566802D01*
X152136492Y-92566803D01*
X152126696Y-92568354D01*
X152013658Y-92625950D01*
X151923950Y-92715658D01*
X151866354Y-92828696D01*
X151864804Y-92838485D01*
X151864803Y-92838487D01*
X151861957Y-92856456D01*
X151851500Y-92922481D01*
X151851501Y-93385518D01*
X151852276Y-93390411D01*
X151852276Y-93390412D01*
X151864335Y-93466553D01*
X151866354Y-93479304D01*
X151870855Y-93488137D01*
X151870857Y-93488142D01*
X151875928Y-93498094D01*
X151923950Y-93592342D01*
X152013658Y-93682050D01*
X152022491Y-93686550D01*
X152022490Y-93686550D01*
X152057703Y-93704492D01*
X152109318Y-93753240D01*
X152126500Y-93816759D01*
X152126500Y-94012300D01*
X152106498Y-94080421D01*
X152052842Y-94126914D01*
X152000500Y-94138300D01*
X150922353Y-94138300D01*
X150854232Y-94118298D01*
X150807739Y-94064642D01*
X150797635Y-93994368D01*
X150821527Y-93936735D01*
X150898089Y-93834578D01*
X150906625Y-93818988D01*
X150948865Y-93706311D01*
X150952490Y-93691066D01*
X150957631Y-93643741D01*
X150958000Y-93636927D01*
X150958000Y-93490115D01*
X150953525Y-93474876D01*
X150952135Y-93473671D01*
X150944452Y-93472000D01*
X150253000Y-93472000D01*
X150184879Y-93451998D01*
X150138386Y-93398342D01*
X150127000Y-93346000D01*
X150127000Y-93199885D01*
X150381000Y-93199885D01*
X150385475Y-93215124D01*
X150386865Y-93216329D01*
X150394548Y-93218000D01*
X150939885Y-93218000D01*
X150955124Y-93213525D01*
X150956329Y-93212135D01*
X150958000Y-93204452D01*
X150958000Y-93053073D01*
X150957631Y-93046259D01*
X150952490Y-92998934D01*
X150948865Y-92983689D01*
X150906625Y-92871012D01*
X150898092Y-92855425D01*
X150826566Y-92759990D01*
X150814010Y-92747434D01*
X150718575Y-92675908D01*
X150702988Y-92667375D01*
X150590311Y-92625135D01*
X150575066Y-92621510D01*
X150527741Y-92616369D01*
X150520927Y-92616000D01*
X150399115Y-92616000D01*
X150383876Y-92620475D01*
X150382671Y-92621865D01*
X150381000Y-92629548D01*
X150381000Y-93199885D01*
X150127000Y-93199885D01*
X150127000Y-92634115D01*
X150122525Y-92618876D01*
X150121135Y-92617671D01*
X150113452Y-92616000D01*
X149987073Y-92616000D01*
X149980259Y-92616369D01*
X149932934Y-92621510D01*
X149917689Y-92625135D01*
X149805012Y-92667375D01*
X149789425Y-92675908D01*
X149693990Y-92747434D01*
X149681434Y-92759990D01*
X149609908Y-92855425D01*
X149601375Y-92871012D01*
X149570458Y-92953485D01*
X149527817Y-93010250D01*
X149461256Y-93034950D01*
X149391907Y-93019743D01*
X149341788Y-92969457D01*
X149338831Y-92962582D01*
X149338719Y-92961874D01*
X149337007Y-92958513D01*
X149282028Y-92850612D01*
X149277528Y-92841780D01*
X149182220Y-92746472D01*
X149173296Y-92741925D01*
X149173213Y-92741847D01*
X149165360Y-92736141D01*
X149166097Y-92735126D01*
X149121682Y-92693178D01*
X149104500Y-92629659D01*
X149104500Y-92284481D01*
X149104499Y-92284475D01*
X149104499Y-92252567D01*
X149101436Y-92243140D01*
X149101435Y-92243133D01*
X149097703Y-92231647D01*
X149093089Y-92212427D01*
X149091199Y-92200493D01*
X149091197Y-92200485D01*
X149089646Y-92190696D01*
X149085146Y-92181865D01*
X149085145Y-92181861D01*
X149079658Y-92171093D01*
X149072094Y-92152832D01*
X149065296Y-92131910D01*
X149059465Y-92123884D01*
X149054964Y-92115050D01*
X149057099Y-92113962D01*
X149037914Y-92060193D01*
X149053995Y-91991042D01*
X149104909Y-91941561D01*
X149163709Y-91927000D01*
X149333885Y-91927000D01*
X149349124Y-91922525D01*
X149350329Y-91921135D01*
X149352000Y-91913452D01*
X149352000Y-91142000D01*
X149372002Y-91073879D01*
X149425658Y-91027386D01*
X149478000Y-91016000D01*
X149480000Y-91016000D01*
X149548121Y-91036002D01*
G37*
%TD.AperFunction*%
%TD*%
%TA.AperFunction,Conductor*%
%TO.N,+3V3*%
G36*
X149166899Y-86250946D02*
G01*
X149213503Y-86304504D01*
X149224999Y-86357086D01*
X149224991Y-87863239D01*
X149224985Y-89174761D01*
X149224982Y-89660921D01*
X149204980Y-89729041D01*
X149151324Y-89775534D01*
X149099080Y-89786920D01*
X146469202Y-89788970D01*
X146399212Y-89767808D01*
X145695410Y-89298607D01*
X145649164Y-89242316D01*
X145646867Y-89230769D01*
X145602552Y-89164448D01*
X145536231Y-89120133D01*
X145524062Y-89117712D01*
X145524061Y-89117712D01*
X145483816Y-89109707D01*
X145477748Y-89108500D01*
X144788252Y-89108500D01*
X144788252Y-89108218D01*
X144721594Y-89095574D01*
X144670067Y-89046733D01*
X144653000Y-88983411D01*
X144653000Y-88054589D01*
X144673002Y-87986468D01*
X144726658Y-87939975D01*
X144788252Y-87929711D01*
X144788252Y-87929500D01*
X145477748Y-87929500D01*
X145483816Y-87928293D01*
X145524061Y-87920288D01*
X145524062Y-87920288D01*
X145536231Y-87917867D01*
X145602552Y-87873552D01*
X145646867Y-87807231D01*
X145658500Y-87748748D01*
X145658500Y-87339252D01*
X145657294Y-87333187D01*
X145657293Y-87333181D01*
X145656913Y-87331272D01*
X145657004Y-87330252D01*
X145656686Y-87327021D01*
X145657299Y-87326961D01*
X145663242Y-87260558D01*
X145670055Y-87249527D01*
X145669000Y-87249000D01*
X146142175Y-86302651D01*
X146190530Y-86250667D01*
X146254873Y-86233000D01*
X148178520Y-86233000D01*
X149098737Y-86231085D01*
X149166899Y-86250946D01*
G37*
%TD.AperFunction*%
%TD*%
M02*
