%TF.GenerationSoftware,KiCad,Pcbnew,5.99.0-unknown-0e3b001c51~134~ubuntu20.04.1*%
%TF.CreationDate,2021-11-30T16:29:57+01:00*%
%TF.ProjectId,accelerometer,61636365-6c65-4726-9f6d-657465722e6b,0.0.1*%
%TF.SameCoordinates,Original*%
%TF.FileFunction,Legend,Top*%
%TF.FilePolarity,Positive*%
%FSLAX46Y46*%
G04 Gerber Fmt 4.6, Leading zero omitted, Abs format (unit mm)*
G04 Created by KiCad (PCBNEW 5.99.0-unknown-0e3b001c51~134~ubuntu20.04.1) date 2021-11-30 16:29:57*
%MOMM*%
%LPD*%
G01*
G04 APERTURE LIST*
%ADD10C,0.120000*%
%TA.AperFunction,Profile*%
%ADD11C,0.100000*%
%TD*%
%ADD12C,0.175000*%
%ADD13C,0.203200*%
G04 APERTURE END LIST*
D10*
X154075000Y-92556000D02*
X154775000Y-92556000D01*
X154075000Y-91086000D02*
X154075000Y-92556000D01*
X154775000Y-91086000D02*
X154075000Y-91086000D01*
D11*
X158115000Y-87503000D02*
G75*
G03*
X155575000Y-84963000I-2540000J0D01*
G01*
X133985000Y-103378000D02*
X133985000Y-87503000D01*
X158115000Y-103378000D02*
X158115000Y-87503000D01*
X133985000Y-103378000D02*
G75*
G03*
X134620000Y-104013000I635000J0D01*
G01*
X136525000Y-84963000D02*
G75*
G03*
X133985000Y-87503000I0J-2540000D01*
G01*
X155575000Y-84963000D02*
X136525000Y-84963000D01*
X158115000Y-103378000D02*
G75*
G02*
X157480000Y-104013000I-635000J0D01*
G01*
X134620000Y-104013000D02*
X157480000Y-104013000D01*
D12*
X138069666Y-94231666D02*
X138536333Y-94231666D01*
X138069666Y-94931666D01*
X138536333Y-94931666D01*
X142133666Y-94231666D02*
X142600333Y-94931666D01*
X142600333Y-94231666D02*
X142133666Y-94931666D01*
X151498333Y-94665000D02*
X152031666Y-94665000D01*
X153530333Y-94665000D02*
X154063666Y-94665000D01*
X153797000Y-94931666D02*
X153797000Y-94398333D01*
X140335000Y-94598333D02*
X140335000Y-94931666D01*
X140101666Y-94231666D02*
X140335000Y-94598333D01*
X140568333Y-94231666D01*
X153958333Y-90740666D02*
X153958333Y-90040666D01*
X154225000Y-90040666D01*
X154291666Y-90074000D01*
X154325000Y-90107333D01*
X154358333Y-90174000D01*
X154358333Y-90274000D01*
X154325000Y-90340666D01*
X154291666Y-90374000D01*
X154225000Y-90407333D01*
X153958333Y-90407333D01*
X154791666Y-90040666D02*
X154925000Y-90040666D01*
X154991666Y-90074000D01*
X155058333Y-90140666D01*
X155091666Y-90274000D01*
X155091666Y-90507333D01*
X155058333Y-90640666D01*
X154991666Y-90707333D01*
X154925000Y-90740666D01*
X154791666Y-90740666D01*
X154725000Y-90707333D01*
X154658333Y-90640666D01*
X154625000Y-90507333D01*
X154625000Y-90274000D01*
X154658333Y-90140666D01*
X154725000Y-90074000D01*
X154791666Y-90040666D01*
X155325000Y-90040666D02*
X155491666Y-90740666D01*
X155625000Y-90240666D01*
X155758333Y-90740666D01*
X155925000Y-90040666D01*
X156191666Y-90374000D02*
X156425000Y-90374000D01*
X156525000Y-90740666D02*
X156191666Y-90740666D01*
X156191666Y-90040666D01*
X156525000Y-90040666D01*
X157225000Y-90740666D02*
X156991666Y-90407333D01*
X156825000Y-90740666D02*
X156825000Y-90040666D01*
X157091666Y-90040666D01*
X157158333Y-90074000D01*
X157191666Y-90107333D01*
X157225000Y-90174000D01*
X157225000Y-90274000D01*
X157191666Y-90340666D01*
X157158333Y-90374000D01*
X157091666Y-90407333D01*
X156825000Y-90407333D01*
D10*
%TO.C,R2*%
X153049500Y-92566258D02*
X153049500Y-92091742D01*
X152004500Y-92566258D02*
X152004500Y-92091742D01*
%TO.C,U2*%
X151089000Y-90943000D02*
X151089000Y-89143000D01*
X147869000Y-89143000D02*
X147869000Y-91593000D01*
%TO.C,J1*%
X154540000Y-97768000D02*
X154540000Y-95378000D01*
X148695000Y-102988000D02*
X148695000Y-102138000D01*
X156865000Y-97768000D02*
X154540000Y-97768000D01*
X148695000Y-98618000D02*
X148695000Y-97768000D01*
X148695000Y-97768000D02*
X151020000Y-97768000D01*
X156865000Y-102988000D02*
X148695000Y-102988000D01*
X156865000Y-98618000D02*
X156865000Y-97768000D01*
X156865000Y-102138000D02*
X156865000Y-102988000D01*
%TO.C,J2*%
X145420000Y-97768000D02*
X143095000Y-97768000D01*
X135250000Y-102988000D02*
X135250000Y-102138000D01*
X145420000Y-98618000D02*
X145420000Y-97768000D01*
X135250000Y-97768000D02*
X137575000Y-97768000D01*
X143095000Y-97768000D02*
X143095000Y-95378000D01*
X145420000Y-102138000D02*
X145420000Y-102988000D01*
X135250000Y-98618000D02*
X135250000Y-97768000D01*
X145420000Y-102988000D02*
X135250000Y-102988000D01*
%TO.C,C1*%
X144319970Y-92448781D02*
X144518781Y-92249970D01*
X145041219Y-93170030D02*
X145240030Y-92971219D01*
%TO.C,C2*%
X142954030Y-92971219D02*
X142755219Y-93170030D01*
X142232781Y-92249970D02*
X142033970Y-92448781D01*
%TO.C,C4*%
X149338420Y-93855000D02*
X149619580Y-93855000D01*
X149338420Y-92835000D02*
X149619580Y-92835000D01*
%TO.C,D1*%
X154775000Y-92556000D02*
X157060000Y-92556000D01*
X157060000Y-92556000D02*
X157060000Y-91086000D01*
X157060000Y-91086000D02*
X154775000Y-91086000D01*
%TO.C,C3*%
X139946781Y-92249970D02*
X139747970Y-92448781D01*
X140668030Y-92971219D02*
X140469219Y-93170030D01*
D13*
%TO.C,U1*%
X141383000Y-87019000D02*
X141383000Y-86519000D01*
X141383000Y-90519000D02*
X141383000Y-90019000D01*
X145383000Y-90519000D02*
X144883000Y-90519000D01*
X141883000Y-90519000D02*
X141383000Y-90519000D01*
X145383000Y-90019000D02*
X145383000Y-90519000D01*
X141383000Y-86519000D02*
X141883000Y-86519000D01*
D10*
%TO.C,R1*%
X155337742Y-94121500D02*
X155812258Y-94121500D01*
X155337742Y-93076500D02*
X155812258Y-93076500D01*
%TO.C,C5*%
X149338420Y-86358000D02*
X149619580Y-86358000D01*
X149338420Y-87378000D02*
X149619580Y-87378000D01*
%TD*%
M02*
